<svg width="427" height="444" viewBox="0 0 427 444" fill="none" xmlns="http://www.w3.org/2000/svg">
<g opacity="0.2">
<ellipse opacity="0.5" cx="549.347" cy="342.181" rx="71.7778" ry="149.734" transform="rotate(-50.3432 549.347 342.181)" fill="#EC7D3F"/>
<path opacity="0.5" fill-rule="evenodd" clip-rule="evenodd" d="M55.1129 337.953C31.4934 366.447 34.4151 410.797 58.3954 452.845L169.208 320.077C123.233 304.061 78.8334 309.338 55.1129 337.953Z" fill="#EC7D3F"/>
<path opacity="0.5" fill-rule="evenodd" clip-rule="evenodd" d="M223.914 375.519C200.294 404.013 203.216 448.363 227.196 490.412L338.009 357.643C292.033 341.628 247.634 346.904 223.914 375.519Z" fill="#EC7D3F"/>
<path opacity="0.5" fill-rule="evenodd" clip-rule="evenodd" d="M363.855 23.2617C349.229 40.9058 348.028 66.9507 357.896 95.1143L432.725 3.98764C403.489 -0.306491 378.377 5.74359 363.855 23.2617Z" fill="#EC7D3F"/>
<path opacity="0.5" d="M371.247 107.135C395.036 78.4376 460.221 92.6758 520.85 138.354L431.687 245.177L429.308 248.026L339.717 355.363C338.971 354.756 338.225 354.144 337.482 353.527C273.816 300.752 242.713 233.227 268.012 202.708C290.695 175.345 351.015 187.019 409.135 227.763C367.544 181.666 350.586 132.06 371.247 107.135Z" fill="#EC7D3F"/>
<path opacity="0.5" d="M204.146 67.5361C227.934 38.839 293.12 53.0772 353.748 98.7549L264.585 205.578L262.206 208.429L172.615 315.765C171.869 315.157 171.124 314.545 170.38 313.929C106.714 261.153 75.6116 193.63 100.91 163.11C123.593 135.747 183.914 147.42 242.033 188.164C200.442 142.067 183.484 92.4611 204.146 67.5361Z" fill="#EC7D3F"/>
</g>
</svg>
