<svg width="24" height="25" viewBox="0 0 24 25" fill="none" xmlns="http://www.w3.org/2000/svg">
<path d="M12 2.5C6.5 2.5 2 7 2 12.5C2 18 6.5 22.5 12 22.5C17.5 22.5 22 18 22 12.5C22 7 17.5 2.5 12 2.5ZM12 21.25C7.1875 21.25 3.25 17.3125 3.25 12.5C3.25 7.6875 7.1875 3.75 12 3.75C16.8125 3.75 20.75 7.6875 20.75 12.5C20.75 17.3125 16.8125 21.25 12 21.25Z" fill="#EC7D3F"/>
<path d="M16 7.66667L7.16667 16.5C6.94444 16.7222 6.94444 17.0556 7.16667 17.2778C7.27778 17.4444 7.38889 17.5 7.55556 17.5C7.72222 17.5 7.83333 17.4444 7.94444 17.3333L16.7778 8.44444C17 8.22222 17 7.88889 16.7778 7.66667C16.5556 7.44444 16.2222 7.44444 16 7.66667Z" fill="#EC7D3F"/>
<path d="M9.22222 11.9444C10.4444 11.9444 11.4444 10.9444 11.4444 9.72222C11.4444 8.5 10.4444 7.5 9.22222 7.5C8 7.5 7 8.5 7 9.72222C7 10.9444 8 11.9444 9.22222 11.9444ZM9.22222 8.61111C9.83333 8.61111 10.3333 9.11111 10.3333 9.72222C10.3333 10.3333 9.83333 10.8333 9.22222 10.8333C8.61111 10.8333 8.11111 10.3333 8.11111 9.72222C8.11111 9.11111 8.61111 8.61111 9.22222 8.61111Z" fill="#EC7D3F"/>
<path d="M14.7769 13.0554C13.5547 13.0554 12.5547 14.0554 12.5547 15.2776C12.5547 16.4998 13.5547 17.4998 14.7769 17.4998C15.9991 17.4998 16.9991 16.4998 16.9991 15.2776C16.9436 14.0554 15.9436 13.0554 14.7769 13.0554ZM14.7769 16.3887C14.1658 16.3887 13.6658 15.8887 13.6658 15.2776C13.6658 14.6665 14.1658 14.1665 14.7769 14.1665C15.388 14.1665 15.888 14.6665 15.888 15.2776C15.8325 15.8887 15.3325 16.3887 14.7769 16.3887Z" fill="#EC7D3F"/>
</svg>
