<svg width="24" height="25" viewBox="0 0 24 25" fill="none" xmlns="http://www.w3.org/2000/svg">
<path d="M7 13.9286H2.71429C2.52485 13.9286 2.34316 14.0038 2.20921 14.1378C2.07525 14.2717 2 14.4534 2 14.6429V21.7857C2 21.9752 2.07525 22.1568 2.20921 22.2908C2.34316 22.4247 2.52485 22.5 2.71429 22.5H7C7.18944 22.5 7.37112 22.4247 7.50508 22.2908C7.63903 22.1568 7.71429 21.9752 7.71429 21.7857V14.6429C7.71429 14.4534 7.63903 14.2717 7.50508 14.1378C7.37112 14.0038 7.18944 13.9286 7 13.9286ZM6.28571 21.0714H3.42857V15.3571H6.28571V21.0714ZM21.2857 8.21429H17C16.8106 8.21429 16.6289 8.28954 16.4949 8.4235C16.361 8.55745 16.2857 8.73913 16.2857 8.92857V21.7857C16.2857 21.9752 16.361 22.1568 16.4949 22.2908C16.6289 22.4247 16.8106 22.5 17 22.5H21.2857C21.4752 22.5 21.6568 22.4247 21.7908 22.2908C21.9247 22.1568 22 21.9752 22 21.7857V8.92857C22 8.73913 21.9247 8.55745 21.7908 8.4235C21.6568 8.28954 21.4752 8.21429 21.2857 8.21429ZM20.5714 21.0714H17.7143V9.64286H20.5714V21.0714ZM14.1429 2.5H9.85714C9.6677 2.5 9.48602 2.57525 9.35207 2.70921C9.21811 2.84316 9.14286 3.02485 9.14286 3.21429V21.7857C9.14286 21.9752 9.21811 22.1568 9.35207 22.2908C9.48602 22.4247 9.6677 22.5 9.85714 22.5H14.1429C14.3323 22.5 14.514 22.4247 14.6479 22.2908C14.7819 22.1568 14.8571 21.9752 14.8571 21.7857V3.21429C14.8571 3.02485 14.7819 2.84316 14.6479 2.70921C14.514 2.57525 14.3323 2.5 14.1429 2.5ZM13.4286 21.0714H10.5714V3.92857H13.4286V21.0714Z" fill="#EC7D3F"/>
</svg>
