<svg width="32" height="32" viewBox="0 0 32 32" fill="none" xmlns="http://www.w3.org/2000/svg">
<path d="M18.4833 7.154L17.9993 6.58109L17.9939 6.5857L17.9885 6.59042L18.4833 7.154ZM13.5328 7.154L14.0292 6.59177L14.0231 6.58636L14.0168 6.58109L13.5328 7.154ZM16.0013 9.33331L15.5049 9.89555C15.7879 10.1454 16.2125 10.146 16.4961 9.8969L16.0013 9.33331ZM16.0013 27.3333L15.4982 27.8896C15.7837 28.1478 16.2184 28.1479 16.504 27.8899L16.0013 27.3333ZM23.1124 5.33331V6.08331C26.1179 6.08331 28.5846 8.58359 28.5846 11.7057H29.3346H30.0846C30.0846 7.78909 26.9798 4.58331 23.1124 4.58331V5.33331ZM2.66797 11.7057H3.41797C3.41797 8.58359 5.88473 6.08331 8.89019 6.08331V5.33331V4.58331C5.02278 4.58331 1.91797 7.78909 1.91797 11.7057H2.66797ZM18.4833 7.154L18.9674 7.72692C19.5195 7.26043 20.9499 6.08331 23.1124 6.08331V5.33331V4.58331C20.386 4.58331 18.6009 6.07286 17.9993 6.58109L18.4833 7.154ZM8.89019 5.33331V6.08331C11.2834 6.08331 12.4813 7.24747 13.0488 7.72692L13.5328 7.154L14.0168 6.58109C13.4306 6.08582 11.8669 4.58331 8.89019 4.58331V5.33331ZM13.5328 7.154L13.0365 7.71624L15.5049 9.89555L16.0013 9.33331L16.4977 8.77108L14.0292 6.59177L13.5328 7.154ZM16.0013 9.33331L16.4961 9.8969L18.9782 7.71759L18.4833 7.154L17.9885 6.59042L15.5065 8.76973L16.0013 9.33331ZM29.3346 11.7057H28.5846C28.5846 12.5049 28.4831 13.1913 28.218 13.88C27.951 14.5737 27.5032 15.3082 26.7626 16.1816L27.3346 16.6666L27.9067 17.1517C28.7216 16.1907 29.2738 15.3128 29.6179 14.4188C29.964 13.5197 30.0846 12.6429 30.0846 11.7057H29.3346ZM27.3346 16.6666L26.7626 16.1816C26.0226 17.0542 23.2356 19.6802 20.5758 22.137C19.258 23.354 17.9886 24.5141 17.0485 25.37C16.5785 25.798 16.1908 26.1498 15.9208 26.3945C15.7858 26.5169 15.6801 26.6125 15.6083 26.6775C15.5724 26.71 15.5449 26.7349 15.5264 26.7516C15.5172 26.7599 15.5102 26.7662 15.5056 26.7704C15.5032 26.7726 15.5015 26.7741 15.5003 26.7752C15.4997 26.7757 15.4993 26.7761 15.499 26.7764C15.4988 26.7765 15.4987 26.7766 15.4987 26.7767C15.4986 26.7767 15.4986 26.7768 16.0013 27.3333C16.504 27.8899 16.5041 27.8898 16.5042 27.8898C16.5042 27.8897 16.5044 27.8896 16.5045 27.8894C16.5048 27.8892 16.5053 27.8888 16.5059 27.8882C16.5071 27.8871 16.5089 27.8855 16.5112 27.8834C16.516 27.8791 16.523 27.8727 16.5324 27.8643C16.551 27.8475 16.5786 27.8225 16.6147 27.7898C16.6868 27.7246 16.7928 27.6286 16.9282 27.5059C17.1989 27.2605 17.5873 26.908 18.0583 26.4792C19.0001 25.6218 20.2723 24.4591 21.5935 23.2389C24.2114 20.8209 27.0911 18.1135 27.9067 17.1517L27.3346 16.6666ZM4.66797 16.6666L5.24192 16.1839C3.87025 14.5532 3.41797 13.2839 3.41797 11.7057H2.66797H1.91797C1.91797 13.6937 2.53414 15.295 4.09402 17.1494L4.66797 16.6666ZM16.0013 27.3333C16.5044 26.7771 16.5043 26.777 16.5043 26.777C16.5042 26.7769 16.5041 26.7768 16.5039 26.7767C16.5037 26.7764 16.5032 26.776 16.5026 26.7755C16.5014 26.7744 16.4997 26.7728 16.4973 26.7707C16.4926 26.7664 16.4856 26.76 16.4762 26.7516C16.4576 26.7347 16.4299 26.7096 16.3936 26.6768C16.3211 26.6111 16.2146 26.5146 16.0784 26.391C15.8061 26.1439 15.4153 25.7889 14.9418 25.3573C13.9946 24.4942 12.7167 23.3255 11.3933 22.1026C8.72042 19.6327 5.93585 17.0088 5.24192 16.1839L4.66797 16.6666L4.09402 17.1494C4.86586 18.067 7.74796 20.7765 10.3753 23.2043C11.702 24.4302 12.9826 25.6015 13.9314 26.466C14.4059 26.8984 14.7974 27.2542 15.0705 27.5019C15.207 27.6257 15.3138 27.7226 15.3866 27.7885C15.423 27.8215 15.4509 27.8467 15.4697 27.8637C15.4791 27.8722 15.4862 27.8787 15.491 27.883C15.4934 27.8852 15.4952 27.8868 15.4964 27.8879C15.497 27.8884 15.4974 27.8889 15.4978 27.8891C15.4979 27.8893 15.498 27.8894 15.4981 27.8895C15.4982 27.8895 15.4982 27.8896 16.0013 27.3333Z" fill="#181817"/>
</svg>
