<svg width="56" height="56" viewBox="0 0 56 56" fill="none" xmlns="http://www.w3.org/2000/svg">
<path d="M0 28C0 12.536 12.536 0 28 0C43.464 0 56 12.536 56 28V56H28C12.536 56 0 43.464 0 28Z" fill="#EC7D3F"/>
<path fill-rule="evenodd" clip-rule="evenodd" d="M25.2537 34.75C30.3644 34.75 34.5075 30.5527 34.5075 25.375C34.5075 20.1973 30.3644 16 25.2537 16C20.1431 16 16 20.1973 16 25.375C16 30.5527 20.1431 34.75 25.2537 34.75ZM25.2537 29.125C27.298 29.125 28.9552 27.4461 28.9552 25.375C28.9552 23.3039 27.298 21.625 25.2537 21.625C23.2094 21.625 21.5522 23.3039 21.5522 25.375C21.5522 27.4461 23.2094 29.125 25.2537 29.125Z" fill="#F4F4F1"/>
<path d="M47 40.8438L32.6567 27.25L27.1045 32.875L30.3433 36.1562H34.0448V38.5H37.2836V41.7812H41.4478V44.5938L47 46V40.8438Z" fill="#F4F4F1"/>
</svg>
