<svg width="24" height="25" viewBox="0 0 24 25" fill="none" xmlns="http://www.w3.org/2000/svg">
<path d="M19.7801 4.7197C19.5663 4.50521 19.2453 4.44221 18.9656 4.55545L2.46548 11.3055C2.15723 11.4322 1.96896 11.7465 2.00422 12.078C2.02103 12.2393 2.08969 12.3908 2.1999 12.5098C2.31011 12.6288 2.45593 12.7089 2.61549 12.738L10.3548 14.145L11.7626 21.8843C11.8218 22.212 12.0903 22.461 12.4218 22.4963C12.4481 22.4985 12.4743 22.5 12.4998 22.5C12.8013 22.5 13.0781 22.3178 13.1943 22.0335L19.9444 5.53347C20.0001 5.39671 20.0143 5.24654 19.985 5.10178C19.9558 4.95702 19.8845 4.82411 19.7801 4.7197Z" fill="#EC7D3F"/>
</svg>
