<svg width="627" height="402" viewBox="0 0 627 402" fill="none" xmlns="http://www.w3.org/2000/svg">
<path fill-rule="evenodd" clip-rule="evenodd" d="M489.957 21.0955C498.156 11.2895 506.587 4.55373 514.723 0H0V402H191.701C182.474 382.287 175.751 353.476 196.535 328.619C232.693 285.376 294.855 319.528 294.855 319.528L225.896 402H344.353C344.342 389.569 347.951 376.578 358.035 364.518C394.193 321.275 456.355 355.427 456.355 355.427L417.413 402H521.375C557.823 363.155 617.169 395.76 617.169 395.76L611.952 402H627V384.003L619.646 392.798L613.078 387.393C553.962 338.748 526.004 275.745 550.769 246.126C564.858 229.277 593.709 227.27 627 238.068V151.343L547.988 245.838L547.492 246.431L459.327 351.872L452.759 346.467C393.643 297.823 365.685 234.819 389.955 205.793C413.245 177.939 474.405 190.089 530.777 232.096C485.358 189.637 466.934 136.634 489.961 109.095C513.748 80.6463 574.554 91.3037 627 132.913V0H562.027L478.119 100.35C478.119 100.35 454.295 63.7461 489.957 21.0955ZM389.955 205.793L386.487 209.939L385.992 210.532L297.827 315.974L291.258 310.569C232.142 261.924 204.184 198.92 228.454 169.894C251.745 142.04 312.904 154.19 369.277 196.197C323.857 153.738 305.434 100.736 328.46 73.1965C352.731 44.1704 415.536 55.8535 468.681 99.5845L474.652 104.498L389.955 205.793Z" fill="#4A8457"/>
</svg>
