<svg width="642" height="406" viewBox="0 0 642 406" fill="none" xmlns="http://www.w3.org/2000/svg">
<ellipse opacity="0.5" cx="673.353" cy="307.414" rx="87.9804" ry="183.534" transform="rotate(-50.3432 673.353 307.414)" fill="#EC7D3F" fill-opacity="0.2"/>
<path opacity="0.5" fill-rule="evenodd" clip-rule="evenodd" d="M67.5537 302.231C38.6025 337.156 42.1837 391.517 71.5772 443.058L207.404 280.32C151.05 260.688 96.6287 267.156 67.5537 302.231Z" fill="#EC7D3F" fill-opacity="0.2"/>
<path opacity="0.5" fill-rule="evenodd" clip-rule="evenodd" d="M274.46 348.258C245.509 383.184 249.09 437.545 278.483 489.085L414.31 326.347C357.956 306.716 303.535 313.183 274.46 348.258Z" fill="#EC7D3F" fill-opacity="0.2"/>
<path opacity="0.5" fill-rule="evenodd" clip-rule="evenodd" d="M445.989 -83.5211C428.062 -61.8941 426.589 -29.9701 438.685 4.55103L530.405 -107.146C494.57 -112.409 463.789 -104.994 445.989 -83.5211Z" fill="#EC7D3F" fill-opacity="0.2"/>
<path opacity="0.5" d="M455.053 19.2854C484.212 -15.8892 564.111 1.56353 638.425 57.552L529.135 188.489L526.219 191.982L416.405 323.547C415.49 322.803 414.577 322.053 413.665 321.297C335.627 256.609 297.505 173.843 328.514 136.434C356.317 102.894 430.254 117.202 501.493 167.144C450.513 110.641 429.728 49.8368 455.053 19.2854Z" fill="#EC7D3F" fill-opacity="0.2"/>
<path opacity="0.5" d="M250.233 -29.2517C279.391 -64.4263 359.291 -46.9736 433.605 9.01488L324.315 139.951L321.399 143.445L211.585 275.01C210.67 274.266 209.756 273.516 208.844 272.76C130.807 208.071 92.6843 125.305 123.694 87.8967C151.497 54.3567 225.433 68.6654 296.672 118.607C245.693 62.1043 224.908 1.29965 250.233 -29.2517Z" fill="#EC7D3F" fill-opacity="0.2"/>
</svg>
