<svg width="48" height="48" viewBox="0 0 48 48" fill="none" xmlns="http://www.w3.org/2000/svg">
<rect width="48" height="48" rx="24" fill="#E9E9E9"/>
<path d="M11.8815 11.9184L11.146 11.7713L10.8519 13.2422L11.5873 13.3892L11.8815 11.9184ZM14.801 13.2671L15.5473 13.1925C15.5145 12.8645 15.2714 12.5964 14.9481 12.5317L14.801 13.2671ZM16.641 29.2138L15.8964 29.3032C15.9416 29.6801 16.2614 29.9638 16.641 29.9638V29.2138ZM33.201 29.2138V29.9638C33.5452 29.9638 33.8452 29.7296 33.9286 29.3957L33.201 29.2138ZM36.2677 16.9471L36.9953 17.129C37.0513 16.905 37.001 16.6676 36.8589 16.4856C36.7167 16.3035 36.4987 16.1971 36.2677 16.1971V16.9471ZM15.169 16.9471L14.4228 17.0218C14.4233 17.0267 14.4238 17.0316 14.4244 17.0365L15.169 16.9471ZM25.2277 26.2838H25.9777V24.7838H25.2277V26.2838ZM11.7344 12.6538L11.5873 13.3892L14.654 14.0026L14.801 13.2671L14.9481 12.5317L11.8815 11.9184L11.7344 12.6538ZM16.641 29.2138V29.9638H33.201V29.2138V28.4638H16.641V29.2138ZM33.201 29.2138L33.9286 29.3957L36.9953 17.129L36.2677 16.9471L35.5401 16.7652L32.4734 29.0319L33.201 29.2138ZM14.801 13.2671L14.0548 13.3418L14.4228 17.0218L15.169 16.9471L15.9153 16.8725L15.5473 13.1925L14.801 13.2671ZM15.169 16.9471L14.4244 17.0365L15.8964 29.3032L16.641 29.2138L17.3857 29.1245L15.9137 16.8578L15.169 16.9471ZM36.2677 16.9471V16.1971H15.169V16.9471V17.6971H36.2677V16.9471ZM20.321 25.5338V26.2838H25.2277V25.5338V24.7838H20.321V25.5338ZM21.5477 33.5071H20.7977C20.7977 34.1091 20.3097 34.5971 19.7077 34.5971V35.3471V36.0971C21.1381 36.0971 22.2977 34.9376 22.2977 33.5071H21.5477ZM19.7077 35.3471V34.5971C19.1057 34.5971 18.6177 34.1091 18.6177 33.5071H17.8677H17.1177C17.1177 34.9376 18.2773 36.0971 19.7077 36.0971V35.3471ZM17.8677 33.5071H18.6177C18.6177 32.9052 19.1057 32.4171 19.7077 32.4171V31.6671V30.9171C18.2773 30.9171 17.1177 32.0767 17.1177 33.5071H17.8677ZM19.7077 31.6671V32.4171C20.3097 32.4171 20.7977 32.9052 20.7977 33.5071H21.5477H22.2977C22.2977 32.0767 21.1381 30.9171 19.7077 30.9171V31.6671ZM32.5877 33.5071H31.8377C31.8377 34.1091 31.3497 34.5971 30.7477 34.5971V35.3471V36.0971C32.1781 36.0971 33.3377 34.9376 33.3377 33.5071H32.5877ZM30.7477 35.3471V34.5971C30.1457 34.5971 29.6577 34.1091 29.6577 33.5071H28.9077H28.1577C28.1577 34.9376 29.3173 36.0971 30.7477 36.0971V35.3471ZM28.9077 33.5071H29.6577C29.6577 32.9052 30.1457 32.4171 30.7477 32.4171V31.6671V30.9171C29.3173 30.9171 28.1577 32.0767 28.1577 33.5071H28.9077ZM30.7477 31.6671V32.4171C31.3497 32.4171 31.8377 32.9052 31.8377 33.5071H32.5877H33.3377C33.3377 32.0767 32.1781 30.9171 30.7477 30.9171V31.6671Z" fill="#818181"/>
</svg>
