<svg width="48" height="48" viewBox="0 0 48 48" fill="none" xmlns="http://www.w3.org/2000/svg">
<rect width="48" height="48" rx="24" fill="#E9E9E9"/>
<path d="M15.7791 27.0832V22.4582H32.2235V27.0832H15.7791Z" stroke="#818181" stroke-width="1.5"/>
<path d="M18.5198 22.4582V17.8332H29.4828V22.4582L18.5198 22.4582Z" stroke="#818181" stroke-width="1.5"/>
<path d="M11.668 36.3332L11.668 31.7082L36.3346 31.7082V36.3332L11.668 36.3332Z" stroke="#818181" stroke-width="1.5"/>
<path d="M13.7235 31.7082V27.0832L34.2791 27.0832V31.7082H13.7235Z" stroke="#818181" stroke-width="1.5"/>
<path d="M27.0846 14.7498C27.0846 16.4527 25.7042 17.8332 24.0013 17.8332C22.2984 17.8332 20.918 16.4527 20.918 14.7498C20.918 13.047 22.2984 11.6665 24.0013 11.6665C25.7042 11.6665 27.0846 13.047 27.0846 14.7498Z" stroke="#818181" stroke-width="1.5"/>
</svg>
