<svg width="32" height="32" viewBox="0 0 32 32" fill="none" xmlns="http://www.w3.org/2000/svg">
<path d="M20.9711 2.66602H11.0276C8.8107 2.66849 6.68529 3.58115 5.11771 5.20373C3.55013 6.82632 2.66841 9.02631 2.66602 11.321L2.66602 15.9993C2.67081 17.9259 3.29546 19.7959 4.44131 21.314C5.58717 22.8322 7.18894 23.912 8.9937 24.383V28.1631C8.9935 28.3658 9.04422 28.5652 9.14089 28.7415C9.23756 28.9178 9.37686 29.0651 9.54511 29.1689C9.72053 29.2756 9.92019 29.3321 10.1236 29.3327C10.3114 29.3329 10.4963 29.2846 10.6615 29.1923L18.7293 24.6543H20.9892C23.2029 24.6469 25.3237 23.7321 26.8874 22.11C28.4511 20.488 29.3303 18.2908 29.3327 15.9993V11.321C29.3303 9.02631 28.4486 6.82632 26.881 5.20373C25.3134 3.58115 23.188 2.66849 20.9711 2.66602ZM10.8016 14.8298H9.89765C9.59797 14.8298 9.31057 14.7065 9.09866 14.4872C8.88676 14.2679 8.76771 13.9704 8.76771 13.6602C8.76771 13.35 8.88676 13.0525 9.09866 12.8331C9.31057 12.6138 9.59797 12.4906 9.89765 12.4906H10.8016C11.1013 12.4906 11.3887 12.6138 11.6006 12.8331C11.8125 13.0525 11.9316 13.35 11.9316 13.6602C11.9316 13.9704 11.8125 14.2679 11.6006 14.4872C11.3887 14.7065 11.1013 14.8298 10.8016 14.8298ZM16.4513 14.8298H15.5474C15.2477 14.8298 14.9603 14.7065 14.7484 14.4872C14.5365 14.2679 14.4174 13.9704 14.4174 13.6602C14.4174 13.35 14.5365 13.0525 14.7484 12.8331C14.9603 12.6138 15.2477 12.4906 15.5474 12.4906H16.4513C16.751 12.4906 17.0384 12.6138 17.2503 12.8331C17.4622 13.0525 17.5813 13.35 17.5813 13.6602C17.5813 13.9704 17.4622 14.2679 17.2503 14.4872C17.0384 14.7065 16.751 14.8298 16.4513 14.8298ZM22.101 14.8298H21.1971C20.8974 14.8298 20.61 14.7065 20.3981 14.4872C20.1862 14.2679 20.0671 13.9704 20.0671 13.6602C20.0671 13.35 20.1862 13.0525 20.3981 12.8331C20.61 12.6138 20.8974 12.4906 21.1971 12.4906H22.101C22.4007 12.4906 22.6881 12.6138 22.9 12.8331C23.1119 13.0525 23.231 13.35 23.231 13.6602C23.231 13.9704 23.1119 14.2679 22.9 14.4872C22.6881 14.7065 22.4007 14.8298 22.101 14.8298Z" fill="#EC7D3F"/>
</svg>
