<svg width="24" height="24" viewBox="0 0 24 24" fill="none" xmlns="http://www.w3.org/2000/svg">
<path fill-rule="evenodd" clip-rule="evenodd" d="M4.5684 3.96281C4.28466 3.67906 3.82465 3.67906 3.54091 3.96281C3.25718 4.24655 3.25717 4.70656 3.54091 4.9903L5.0036 6.45299C3.21353 7.57051 1.58729 9.10321 0.187788 10.9617C-0.0625959 11.2956 -0.0625959 11.762 0.187788 12.0958C3.25621 16.1756 7.41452 18.6843 12 18.6843C13.5324 18.6843 15.0171 18.4041 16.4294 17.8789L18.5915 20.0409C18.8752 20.3247 19.3353 20.3247 19.619 20.0409C19.9028 19.7572 19.9028 19.2971 19.619 19.0134L17.858 17.2524L15.6308 15.0251L13.9864 13.3808L10.1504 9.54478L8.50233 7.89673L6.32466 5.71906L4.5684 3.96281ZM7.60388 5.17124L9.5579 7.11491C10.1927 6.76159 10.91 6.54167 11.6711 6.4941C14.7149 6.30264 17.2286 8.81141 17.0371 11.8602C16.9887 12.6104 16.7725 13.3184 16.4261 13.9468L19.0617 16.5684C20.826 15.4545 22.4298 13.9366 23.8122 12.1007C24.0626 11.7669 24.0626 11.3005 23.8122 10.9666C20.7438 6.88686 16.5854 4.37813 12 4.37813C10.4796 4.37814 9.00618 4.65398 7.60388 5.17124ZM6.96287 11.2023C7.01134 10.4269 7.23877 9.69683 7.60388 9.05327L9.37634 10.8258C9.33052 10.9962 9.30114 11.173 9.28996 11.3545C9.18195 12.9943 10.5369 14.3444 12.1767 14.2413C12.358 14.2301 12.5348 14.2006 12.7052 14.1547L14.4748 15.9242C13.8318 16.2899 13.1028 16.5184 12.3289 16.5684C9.28504 16.7599 6.7714 14.2511 6.96287 11.2023ZM11.3448 8.8923L14.6425 12.1726C14.6799 12.0206 14.7045 11.8637 14.7149 11.7031C14.8229 10.0633 13.4679 8.7132 11.8282 8.81629C11.6628 8.82708 11.5012 8.85287 11.3448 8.8923Z" fill="#504848"/>
</svg>
