<svg width="24" height="24" viewBox="0 0 24 24" fill="none" xmlns="http://www.w3.org/2000/svg">
<path d="M20.5 7.40107L19 9.21984L17.5 4.95075C17.3585 4.51385 17.1057 4.13666 16.7747 3.86889C16.4437 3.60113 16.0502 3.45536 15.646 3.4508H8.4C7.9925 3.44001 7.59188 3.57312 7.25177 3.83233C6.91166 4.09153 6.64832 4.46445 6.497 4.90114L5 9.21984L3.5 7.40107" stroke="#D2D2D2" stroke-width="1.5" stroke-linecap="round" stroke-linejoin="round"/>
<path d="M7 13.3062H7.01111" stroke="#D2D2D2" stroke-width="2" stroke-linecap="round" stroke-linejoin="round"/>
<path d="M17 13.3062H17.0111" stroke="#D2D2D2" stroke-width="2" stroke-linecap="round" stroke-linejoin="round"/>
<path d="M4.76979 9.24835H19.2365C19.2365 9.24835 21.3031 9.24835 21.3031 11.556V16.1712C21.3031 16.1712 21.3031 18.4788 19.2365 18.4788H4.76979C4.76979 18.4788 2.70312 18.4788 2.70312 16.1712V11.556C2.70312 11.556 2.70312 9.24835 4.76979 9.24835Z" stroke="#D2D2D2" stroke-width="1.5" stroke-linecap="round" stroke-linejoin="round"/>
<path d="M5 18.9478V21.0002" stroke="#D2D2D2" stroke-width="1.5" stroke-linecap="round" stroke-linejoin="round"/>
<path d="M19 18.9478V21.0002" stroke="#D2D2D2" stroke-width="1.5" stroke-linecap="round" stroke-linejoin="round"/>
</svg>
