<svg width="25" height="24" viewBox="0 0 25 24" fill="none" xmlns="http://www.w3.org/2000/svg">
<path d="M20.75 7.40107L19.25 9.21984L17.75 4.95075C17.6085 4.51385 17.3557 4.13666 17.0247 3.86889C16.6937 3.60113 16.3002 3.45536 15.896 3.4508H8.65C8.2425 3.44001 7.84188 3.57312 7.50177 3.83233C7.16166 4.09153 6.89832 4.46445 6.747 4.90114L5.25 9.21984L3.75 7.40107" stroke="#181817" stroke-width="1.5" stroke-linecap="round" stroke-linejoin="round"/>
<path d="M7.25 13.3066H7.26111" stroke="#181817" stroke-width="2" stroke-linecap="round" stroke-linejoin="round"/>
<path d="M17.25 13.3066H17.2611" stroke="#181817" stroke-width="2" stroke-linecap="round" stroke-linejoin="round"/>
<path d="M5.01979 9.24805H19.4865C19.4865 9.24805 21.5531 9.24805 21.5531 11.5557V16.1709C21.5531 16.1709 21.5531 18.4785 19.4865 18.4785H5.01979C5.01979 18.4785 2.95312 18.4785 2.95312 16.1709V11.5557C2.95312 11.5557 2.95312 9.24805 5.01979 9.24805Z" stroke="#181817" stroke-width="1.5" stroke-linecap="round" stroke-linejoin="round"/>
<path d="M5.25 18.9473V20.9997" stroke="#181817" stroke-width="1.5" stroke-linecap="round" stroke-linejoin="round"/>
<path d="M19.25 18.9473V20.9997" stroke="#181817" stroke-width="1.5" stroke-linecap="round" stroke-linejoin="round"/>
</svg>
