<svg width="20" height="21" viewBox="0 0 20 21" fill="none" xmlns="http://www.w3.org/2000/svg">
<path d="M17.0846 6.66758L15.8346 8.18322L14.5846 4.62565C14.4668 4.26156 14.256 3.94723 13.9802 3.7241C13.7044 3.50096 13.3765 3.37949 13.0396 3.37569H7.0013C6.66172 3.36669 6.32787 3.47762 6.04444 3.69363C5.76102 3.90963 5.54157 4.2204 5.41547 4.5843L4.16797 8.18322L2.91797 6.66758" stroke="#818181" stroke-width="1.5" stroke-linecap="round" stroke-linejoin="round"/>
<path d="M5.83203 11.5885H5.84129" stroke="#818181" stroke-width="2" stroke-linecap="round" stroke-linejoin="round"/>
<path d="M14.168 11.5885H14.1772" stroke="#818181" stroke-width="2" stroke-linecap="round" stroke-linejoin="round"/>
<path d="M3.97222 8.20697H16.0278C16.0278 8.20697 17.75 8.20697 17.75 10.13V13.976C17.75 13.976 17.75 15.899 16.0278 15.899H3.97222C3.97222 15.899 2.25 15.899 2.25 13.976V10.13C2.25 10.13 2.25 8.20697 3.97222 8.20697Z" stroke="#818181" stroke-width="1.5" stroke-linecap="round" stroke-linejoin="round"/>
<path d="M4.16797 16.2898V18.0002" stroke="#818181" stroke-width="1.5" stroke-linecap="round" stroke-linejoin="round"/>
<path d="M15.832 16.2898V18.0002" stroke="#818181" stroke-width="1.5" stroke-linecap="round" stroke-linejoin="round"/>
</svg>
