<svg width="32" height="32" viewBox="0 0 32 32" fill="none" xmlns="http://www.w3.org/2000/svg">
<path d="M9.33366 17.9046H3.61937C3.36679 17.9046 3.12454 18.0049 2.94594 18.1835C2.76733 18.3622 2.66699 18.6044 2.66699 18.857V28.3808C2.66699 28.6334 2.76733 28.8756 2.94594 29.0542C3.12454 29.2328 3.36679 29.3332 3.61937 29.3332H9.33366C9.58625 29.3332 9.82849 29.2328 10.0071 29.0542C10.1857 28.8756 10.286 28.6334 10.286 28.3808V18.857C10.286 18.6044 10.1857 18.3622 10.0071 18.1835C9.82849 18.0049 9.58625 17.9046 9.33366 17.9046ZM8.38128 27.4284H4.57175V19.8094H8.38128V27.4284ZM28.3813 10.2856H22.667C22.4144 10.2856 22.1722 10.3859 21.9936 10.5645C21.815 10.7431 21.7146 10.9853 21.7146 11.2379V28.3808C21.7146 28.6334 21.815 28.8756 21.9936 29.0542C22.1722 29.2328 22.4144 29.3332 22.667 29.3332H28.3813C28.6339 29.3332 28.8761 29.2328 29.0547 29.0542C29.2333 28.8756 29.3337 28.6334 29.3337 28.3808V11.2379C29.3337 10.9853 29.2333 10.7431 29.0547 10.5645C28.8761 10.3859 28.6339 10.2856 28.3813 10.2856ZM27.4289 27.4284H23.6194V12.1903H27.4289V27.4284ZM18.8575 2.6665H13.1432C12.8906 2.6665 12.6484 2.76684 12.4697 2.94545C12.2911 3.12406 12.1908 3.3663 12.1908 3.61888V28.3808C12.1908 28.6334 12.2911 28.8756 12.4697 29.0542C12.6484 29.2328 12.8906 29.3332 13.1432 29.3332H18.8575C19.1101 29.3332 19.3523 29.2328 19.5309 29.0542C19.7095 28.8756 19.8099 28.6334 19.8099 28.3808V3.61888C19.8099 3.3663 19.7095 3.12406 19.5309 2.94545C19.3523 2.76684 19.1101 2.6665 18.8575 2.6665ZM17.9051 27.4284H14.0956V4.57127H17.9051V27.4284Z" fill="#181817"/>
</svg>
