<svg width="64" height="64" viewBox="0 0 64 64" fill="none" xmlns="http://www.w3.org/2000/svg">
<path d="M37.4229 5.18311C37.6613 5.18311 37.8978 5.23055 38.1182 5.32178C38.3385 5.41307 38.5393 5.54667 38.708 5.71533L53.2549 20.2622C53.4236 20.4309 53.5572 20.6316 53.6484 20.8521C53.7397 21.0724 53.7872 21.3088 53.7871 21.5474V53.3315C53.7869 56.3563 51.3256 58.8169 48.3008 58.8169H15.6992C12.6744 58.8169 10.2131 56.3563 10.2129 53.3315V10.6694C10.2129 7.64451 12.6743 5.18311 15.6992 5.18311H37.4229ZM15.6992 8.81689C14.678 8.81689 13.8467 9.64821 13.8467 10.6694V53.3315C13.8469 54.3526 14.6781 55.1831 15.6992 55.1831H48.3008C49.3219 55.1831 50.1531 54.3526 50.1533 53.3315V23.3638H37.4229C36.4199 23.3635 35.6066 22.5503 35.6064 21.5474V8.81689H15.6992ZM42.25 42.5815C43.2534 42.5815 44.0664 43.3957 44.0664 44.3989C44.0662 45.402 43.2532 46.2153 42.25 46.2153H21.75C20.7469 46.2153 19.9338 45.402 19.9336 44.3989C19.9336 43.3957 20.7468 42.5816 21.75 42.5815H42.25ZM42.25 31.2075C43.2534 31.2075 44.0664 32.0206 44.0664 33.0239C44.0663 34.0271 43.2532 34.8403 42.25 34.8403H21.75C20.7468 34.8403 19.9337 34.0271 19.9336 33.0239C19.9336 32.0207 20.7468 31.2075 21.75 31.2075H42.25ZM39.2402 19.731H47.585L39.2402 11.3862V19.731Z" fill="#EC7D3F" stroke="#494949" stroke-width="0.3"/>
</svg>
