<svg width="14" height="13" viewBox="0 0 14 13" fill="none" xmlns="http://www.w3.org/2000/svg">
<path d="M4.78271 10.3173L5.31304 10.8477L5.21758 10.9431L5.09483 10.9993L4.78271 10.3173ZM3.09271 8.62732L2.41074 8.31521L2.46692 8.19245L2.56238 8.09699L3.09271 8.62732ZM1.66656 11.7435V12.4935C1.41122 12.4935 1.17342 12.3636 1.03546 12.1487C0.897499 11.9338 0.878332 11.6635 0.984593 11.4314L1.66656 11.7435ZM9.59531 2.12472L9.06498 1.59439L9.06498 1.59439L9.59531 2.12472ZM9.17824 10.9935C9.59246 10.9935 9.92824 11.3293 9.92824 11.7435C9.92824 12.1577 9.59246 12.4935 9.17824 12.4935V11.7435V10.9935ZM10.7202 12.4935C10.3059 12.4935 9.97015 12.1577 9.97015 11.7435C9.97015 11.3293 10.3059 10.9935 10.7202 10.9935V11.7435V12.4935ZM12.4102 10.9935C12.8244 10.9935 13.1602 11.3293 13.1602 11.7435C13.1602 12.1577 12.8244 12.4935 12.4102 12.4935V11.7435V10.9935ZM11.5652 3.53489L12.0955 4.06522H12.0955L11.5652 3.53489ZM9.87515 1.84488L10.4055 2.37521L10.4055 2.37521L9.87515 1.84488ZM4.78271 10.3173L5.09483 10.9993L1.97868 12.4254L1.66656 11.7435L1.35445 11.0615L4.4706 9.63535L4.78271 10.3173ZM1.66656 11.7435L0.984593 11.4314L2.41074 8.31521L3.09271 8.62732L3.77468 8.93944L2.34854 12.0556L1.66656 11.7435ZM3.09271 8.62732L2.56238 8.09699L9.06498 1.59439L9.59531 2.12472L10.1256 2.65505L3.62304 9.15765L3.09271 8.62732ZM9.59531 2.12472L9.06498 1.59439L9.34482 1.31455L9.87515 1.84488L10.4055 2.37521L10.1256 2.65505L9.59531 2.12472ZM11.5652 3.53489L12.0955 4.06522L11.8156 4.34506L11.2853 3.81473L10.755 3.2844L11.0348 3.00456L11.5652 3.53489ZM11.2853 3.81473L11.8156 4.34506L5.31304 10.8477L4.78271 10.3173L4.25238 9.787L10.755 3.2844L11.2853 3.81473ZM9.59531 2.12472L10.1256 1.59439L11.8156 3.2844L11.2853 3.81473L10.755 4.34506L9.06498 2.65505L9.59531 2.12472ZM3.09271 8.62732L3.62304 8.09699C3.95304 8.42699 4.21054 8.68449 4.46804 8.942C4.72555 9.1995 4.98305 9.457 5.31304 9.787L4.78271 10.3173L4.25238 10.8477C3.92239 10.5177 3.66489 10.2602 3.40738 10.0027C3.14988 9.74515 2.89237 9.48765 2.56238 9.15765L3.09271 8.62732ZM1.66656 11.7435V10.9935L9.17824 10.9935V11.7435V12.4935L1.66656 12.4935V11.7435ZM10.7202 11.7435V10.9935H12.4102V11.7435V12.4935H10.7202V11.7435ZM11.5652 1.84488L12.0955 1.31455C12.8551 2.07413 12.8551 3.30564 12.0955 4.06522L11.5652 3.53489L11.0348 3.00456C11.2086 2.83077 11.2086 2.549 11.0348 2.37521L11.5652 1.84488ZM11.5652 1.84488L11.0348 2.37521C10.861 2.20143 10.5793 2.20143 10.4055 2.37521L9.87515 1.84488L9.34482 1.31455C10.1044 0.554979 11.3359 0.55498 12.0955 1.31455L11.5652 1.84488Z" fill="#9E9E9E"/>
</svg>
