<svg width="64" height="64" viewBox="0 0 64 64" fill="none" xmlns="http://www.w3.org/2000/svg">
<path d="M54.4126 5.84497H10.0852C7.74617 5.84497 5.84375 7.74739 5.84375 10.0864V54.4242C5.84375 56.7529 7.74617 58.6553 10.0852 58.6553H54.423C56.7621 58.6553 58.6645 56.7529 58.6645 54.4139V10.0864C58.6541 7.74739 56.7517 5.84497 54.4126 5.84497ZM30.7831 55.7237H10.0852C9.3679 55.7237 8.78574 55.1416 8.78574 54.4242V10.0864C8.78574 9.36913 9.3679 8.78696 10.0852 8.78696H30.7831V55.7237ZM55.7225 54.4139C55.7225 55.1312 55.1403 55.7133 54.423 55.7133H33.7147V8.77657H54.4126C55.1299 8.77657 55.7121 9.35873 55.7121 10.076V54.4139H55.7225Z" fill="#EC7D3F"/>
<path d="M18.7528 40.0977C19.0439 40.3887 19.4182 40.5239 19.7924 40.5239C20.1666 40.5239 20.5409 40.3783 20.832 40.0977L25.4685 35.4612C26.0402 34.8894 26.0402 33.9642 25.4685 33.382C24.8967 32.8103 23.9715 32.8103 23.3893 33.382L21.2582 35.5131V25.4397C21.2582 24.6288 20.6033 23.9739 19.7924 23.9739C18.9815 23.9739 18.3266 24.6288 18.3266 25.4397V35.5131L16.1955 33.3924C15.6237 32.8206 14.6985 32.8206 14.1163 33.3924C13.5446 33.9642 13.5446 34.8894 14.1163 35.4716L18.7528 40.0977ZM45.7609 24.4001C45.4699 24.109 45.0956 23.9739 44.7214 23.9739C44.3471 23.9739 43.9729 24.1194 43.6818 24.4001L39.0453 29.0366C38.4735 29.6084 38.4735 30.5336 39.0453 31.1157C39.6171 31.6875 40.5423 31.6875 41.1244 31.1157L43.2556 28.9846V39.0581C43.2556 39.869 43.9105 40.5239 44.7214 40.5239C45.5322 40.5239 46.1872 39.869 46.1872 39.0581V28.9846L48.3183 31.1157C48.8901 31.6875 49.8153 31.6875 50.3974 31.1157C50.9692 30.544 50.9692 29.6188 50.3974 29.0366L45.7609 24.4001Z" fill="#EC7D3F"/>
</svg>
