<svg width="24" height="24" viewBox="0 0 24 24" fill="none" xmlns="http://www.w3.org/2000/svg">
<path d="M21.7621 11.4546L16.9964 7.96625C16.6101 7.68344 16.0626 7.9582 16.0626 8.4341V10.1783H14.8907V3.74418C14.8907 2.78246 14.1022 2 13.1329 2H3.75782C2.79039 2 2 2.7823 2 3.74418V17.1529C1.99969 17.4401 2.071 17.723 2.20759 17.9762C2.34417 18.2294 2.54178 18.4451 2.78279 18.6042L7.47032 21.705C8.63727 22.4769 10.2032 21.6436 10.2032 20.2537V19.5195H13.133C14.1022 19.5195 14.8908 18.737 14.8908 17.7753V13.6667H16.0627V15.4109C16.0627 15.8902 16.6131 16.1594 16.9965 15.8788L21.7622 12.3904C22.0793 12.1582 22.0793 11.6868 21.7621 11.4546ZM8.12037 20.7374L3.43283 17.6366C3.35249 17.5836 3.28663 17.5117 3.2411 17.4273C3.19557 17.3429 3.1718 17.2486 3.1719 17.1529V3.74414C3.1719 3.6725 3.18564 3.60418 3.20962 3.54078L8.60975 6.21992C8.80206 6.31531 9.0313 6.49141 9.0313 6.7884V20.2537C9.0313 20.7185 8.51038 20.9955 8.12037 20.7374ZM13.7189 17.7753C13.7189 18.0959 13.456 18.3567 13.1329 18.3567H10.2032V6.78844C10.2032 6.1034 9.81346 5.51711 9.13389 5.17992L5.06806 3.16281H13.1329C13.456 3.16281 13.7189 3.42363 13.7189 3.74422V10.1784H11.9611C11.6375 10.1784 11.3751 10.4387 11.3751 10.7598V13.0854C11.3751 13.4064 11.6375 13.6668 11.9611 13.6668H13.7189V17.7753ZM17.2345 14.2595V13.0853C17.2345 12.7642 16.9722 12.5039 16.6486 12.5039H12.547V11.3411H16.6486C16.9722 11.3411 17.2345 11.0808 17.2345 10.7597V9.58555L20.4272 11.9225L17.2345 14.2595Z" fill="#EC7D3F"/>
<path d="M5.5 8C5.22386 8 5 8.29849 5 8.66667V11.3333C5 11.7015 5.22386 12 5.5 12C5.77614 12 6 11.7015 6 11.3333V8.66667C5.99997 8.29849 5.7761 8 5.5 8Z" fill="#EC7D3F"/>
</svg>
