<svg width="14" height="11" viewBox="0 0 14 11" fill="none" xmlns="http://www.w3.org/2000/svg">
<path d="M12.8327 3.52231C12.8327 1.98257 11.6139 0.734375 10.1105 0.734375C9.04102 0.734375 8.33762 1.31771 8.08524 1.53093L6.99935 2.48438L5.91939 1.53093C5.66701 1.31771 5.0629 0.734375 3.88824 0.734375C2.3848 0.734375 1.16602 1.98257 1.16602 3.52231C1.16602 4.3024 1.39974 4.93035 2.04102 5.69271C2.68229 6.45507 6.99935 10.3594 6.99935 10.3594C6.99935 10.3594 11.2771 6.4953 11.9577 5.69271C12.6382 4.89012 12.8327 4.28194 12.8327 3.52231Z" fill="#EC7D3F"/>
<path d="M8.08524 1.53093L7.69796 1.07251L7.68937 1.08006L8.08524 1.53093ZM5.91939 1.53093L6.31659 1.08103L6.3066 1.07259L5.91939 1.53093ZM6.99935 2.48438L6.60225 2.93417C6.82864 3.13403 7.16829 3.1345 7.39522 2.93524L6.99935 2.48438ZM11.9577 5.69271L11.5001 5.30466L11.9577 5.69271ZM6.99935 10.3594L6.59689 10.8044C6.8253 11.0109 7.17301 11.0111 7.40154 10.8046L6.99935 10.3594ZM2.04102 5.69271L2.50017 5.30648L2.50017 5.30648L2.04102 5.69271ZM10.1105 0.734375V1.33438C11.2691 1.33438 12.2327 2.30037 12.2327 3.52231H12.8327H13.4327C13.4327 1.66478 11.9587 0.134375 10.1105 0.134375V0.734375ZM1.16602 3.52231H1.76602C1.76602 2.30037 2.72958 1.33438 3.88824 1.33438V0.734375V0.134375C2.04001 0.134375 0.566016 1.66477 0.566016 3.52231H1.16602ZM8.08524 1.53093L8.47245 1.98926C8.70507 1.79274 9.26656 1.33438 10.1105 1.33438V0.734375V0.134375C8.81547 0.134375 7.97018 0.842678 7.69803 1.0726L8.08524 1.53093ZM3.88824 0.734375V1.33438C4.82948 1.33438 5.28729 1.78237 5.53218 1.98926L5.91939 1.53093L6.3066 1.07259C6.04673 0.853047 5.29631 0.134375 3.88824 0.134375V0.734375ZM5.91939 1.53093L5.52229 1.98072L6.60225 2.93417L6.99935 2.48438L7.39645 2.03458L6.31649 1.08114L5.91939 1.53093ZM6.99935 2.48438L7.39522 2.93524L8.48112 1.9818L8.08524 1.53093L7.68937 1.08006L6.60347 2.03351L6.99935 2.48438ZM12.8327 3.52231H12.2327C12.2327 3.84694 12.1917 4.11271 12.0904 4.37588C11.9876 4.6431 11.8106 4.93842 11.5001 5.30466L11.9577 5.69271L12.4153 6.08075C12.7853 5.64441 13.0458 5.23435 13.2103 4.80692C13.3764 4.37544 13.4327 3.9573 13.4327 3.52231H12.8327ZM11.9577 5.69271L11.5001 5.30466C11.19 5.67029 9.98752 6.8044 8.81621 7.88625C8.24034 8.41814 7.68547 8.92521 7.27446 9.2994C7.06899 9.48646 6.89956 9.64024 6.78154 9.74721C6.72253 9.8007 6.67638 9.84247 6.64501 9.87086C6.62933 9.88505 6.61734 9.89589 6.60928 9.90318C6.60525 9.90682 6.60221 9.90957 6.60018 9.9114C6.59916 9.91232 6.5984 9.91301 6.5979 9.91346C6.59765 9.91369 6.59746 9.91386 6.59733 9.91397C6.59727 9.91403 6.59723 9.91407 6.5972 9.91409C6.59717 9.91412 6.59716 9.91413 6.99935 10.3594C7.40154 10.8046 7.40156 10.8046 7.4016 10.8046C7.40163 10.8045 7.40168 10.8045 7.40175 10.8044C7.40189 10.8043 7.40209 10.8041 7.40236 10.8039C7.40289 10.8034 7.40368 10.8027 7.40473 10.8017C7.40681 10.7999 7.40991 10.7971 7.414 10.7934C7.42218 10.786 7.43429 10.775 7.4501 10.7607C7.48172 10.7321 7.52814 10.6901 7.58744 10.6363C7.70602 10.5289 7.8761 10.3745 8.08231 10.1867C8.49465 9.81134 9.05176 9.30223 9.63041 8.76777C10.7681 7.71694 12.0448 6.51772 12.4153 6.08075L11.9577 5.69271ZM2.04102 5.69271L2.50017 5.30648C1.93419 4.63362 1.76602 4.13851 1.76602 3.52231H1.16602H0.566016C0.566016 4.46629 0.865292 5.22707 1.58186 6.07894L2.04102 5.69271ZM6.99935 10.3594C7.40181 9.91437 7.40179 9.91436 7.40177 9.91434C7.40174 9.91431 7.40169 9.91427 7.40163 9.91421C7.4015 9.9141 7.40131 9.91393 7.40106 9.9137C7.40055 9.91324 7.39978 9.91254 7.39876 9.91161C7.39671 9.90976 7.39363 9.90698 7.38957 9.9033C7.38144 9.89594 7.36934 9.88498 7.35351 9.87065C7.32185 9.84198 7.2753 9.79978 7.21578 9.74578C7.09676 9.63778 6.92593 9.48258 6.71892 9.29393C6.30481 8.91657 5.74623 8.4057 5.16786 7.87126C3.99022 6.78306 2.78965 5.65062 2.50017 5.30648L2.04102 5.69271L1.58186 6.07894C1.93365 6.49716 3.21225 7.69805 4.35346 8.75259C4.93452 9.28952 5.49528 9.80238 5.91066 10.1809C6.11839 10.3702 6.28984 10.526 6.40941 10.6345C6.4692 10.6887 6.51601 10.7311 6.54791 10.76C6.56386 10.7745 6.57608 10.7855 6.58432 10.793C6.58844 10.7967 6.59157 10.7996 6.59368 10.8015C6.59473 10.8024 6.59553 10.8031 6.59606 10.8036C6.59633 10.8039 6.59654 10.8041 6.59667 10.8042C6.59674 10.8042 6.5968 10.8043 6.59683 10.8043C6.59687 10.8044 6.59689 10.8044 6.99935 10.3594Z" fill="#EC7D3F"/>
</svg>
