<svg width="28" height="26" viewBox="0 0 28 26" fill="none" xmlns="http://www.w3.org/2000/svg">
<path d="M6.2 3.58897C6.2 5.07401 7.36406 6.27786 8.8 6.27786C10.2359 6.27786 11.4 5.07401 11.4 3.58897C11.4 2.10394 10.2359 0.900085 8.8 0.900085C7.36406 0.900085 6.2 2.10394 6.2 3.58897ZM6.2 3.58897H1M6.2 22.4112C6.2 23.8962 7.36406 25.1001 8.8 25.1001C10.2359 25.1001 11.4 23.8962 11.4 22.4112C11.4 20.9262 10.2359 19.7223 8.8 19.7223C7.36406 19.7223 6.2 20.9262 6.2 22.4112ZM6.2 22.4112H1M10.2182 13.0001H1M27 13.0001H19.2M19.2 13.0001C19.2 14.4851 18.0359 15.689 16.6 15.689C15.1641 15.689 14 14.4851 14 13.0001C14 11.5151 15.1641 10.3112 16.6 10.3112C18.0359 10.3112 19.2 11.5151 19.2 13.0001ZM27 3.58897H15.1818M27 22.4112H15.1818" stroke="#EC7D3F" stroke-width="1.6" stroke-linecap="round"/>
</svg>
