<svg width="41" height="40" viewBox="0 0 41 40" fill="none" xmlns="http://www.w3.org/2000/svg">
<path d="M28.4211 23.1686C22.4034 23.1981 21.43 26.8231 21.1055 29.8883L20.9581 31.244H19.7485L19.6011 29.8883C19.2766 26.8231 18.2737 23.1981 12.4624 23.1686C11.489 21.1643 11.076 19.5434 11.076 17.7161C11.076 13.1479 14.8223 8.87432 20.368 8.87432C25.9137 8.87432 29.601 13.1183 29.601 17.7457C29.6011 19.5434 29.4241 21.1643 28.4211 23.1686ZM20.3091 3.3335C11.1646 3.3335 3.67188 10.8196 3.67188 19.9854C3.67188 29.1809 11.1646 36.6668 20.3091 36.6668C29.542 36.6668 37.0052 29.1809 37.0052 19.9854C37.0052 10.8196 29.542 3.3335 20.3091 3.3335Z" fill="#29B24A"/>
</svg>
