<svg width="30" height="25" viewBox="0 0 30 25" fill="none" xmlns="http://www.w3.org/2000/svg">
<path d="M17.4794 3.15403L16.9954 2.58112L16.99 2.58573L16.9846 2.59045L17.4794 3.15403ZM12.5289 3.15403L13.0253 2.5918L13.0192 2.58639L13.0129 2.58112L12.5289 3.15403ZM14.9974 5.33334L14.501 5.89558C14.784 6.14542 15.2086 6.14599 15.4922 5.89693L14.9974 5.33334ZM14.9974 23.3333L14.4943 23.8896C14.7798 24.1478 15.2145 24.1479 15.5001 23.8899L14.9974 23.3333ZM22.1085 1.33334V2.08334C25.114 2.08334 27.5807 4.58362 27.5807 7.70576H28.3307H29.0807C29.0807 3.78912 25.9759 0.583344 22.1085 0.583344V1.33334ZM1.66406 7.70576H2.41406C2.41406 4.58362 4.88082 2.08334 7.88629 2.08334V1.33334V0.583344C4.01887 0.583344 0.914062 3.78912 0.914062 7.70576H1.66406ZM17.4794 3.15403L17.9635 3.72695C18.5156 3.26046 19.946 2.08334 22.1085 2.08334V1.33334V0.583344C19.3821 0.583344 17.597 2.07289 16.9954 2.58112L17.4794 3.15403ZM7.88629 1.33334V2.08334C10.2794 2.08334 11.4774 3.2475 12.0449 3.72695L12.5289 3.15403L13.0129 2.58112C12.4267 2.08585 10.863 0.583344 7.88629 0.583344V1.33334ZM12.5289 3.15403L12.0325 3.71627L14.501 5.89558L14.9974 5.33334L15.4938 4.77111L13.0253 2.5918L12.5289 3.15403ZM14.9974 5.33334L15.4922 5.89693L17.9743 3.71762L17.4794 3.15403L16.9846 2.59045L14.5026 4.76976L14.9974 5.33334ZM28.3307 7.70576H27.5807C27.5807 8.50494 27.4792 9.19131 27.2141 9.88C26.9471 10.5737 26.4993 11.3082 25.7587 12.1816L26.3307 12.6667L26.9028 13.1517C27.7177 12.1907 28.2699 11.3128 28.614 10.4188C28.9601 9.51973 29.0807 8.64289 29.0807 7.70576H28.3307ZM26.3307 12.6667L25.7587 12.1816C25.0187 13.0543 22.2317 15.6802 19.5719 18.137C18.2541 19.3541 16.9847 20.5141 16.0446 21.3701C15.5745 21.798 15.1869 22.1498 14.9169 22.3946C14.7819 22.5169 14.6762 22.6126 14.6044 22.6776C14.5685 22.71 14.541 22.7349 14.5225 22.7516C14.5133 22.7599 14.5063 22.7663 14.5016 22.7705C14.4993 22.7726 14.4976 22.7742 14.4964 22.7752C14.4958 22.7758 14.4954 22.7761 14.4951 22.7764C14.4949 22.7765 14.4948 22.7766 14.4948 22.7767C14.4947 22.7768 14.4947 22.7768 14.9974 23.3333C15.5001 23.8899 15.5002 23.8899 15.5003 23.8898C15.5003 23.8897 15.5005 23.8896 15.5006 23.8895C15.5009 23.8892 15.5014 23.8888 15.502 23.8882C15.5032 23.8872 15.505 23.8855 15.5073 23.8834C15.5121 23.8791 15.5191 23.8727 15.5284 23.8643C15.5471 23.8475 15.5747 23.8225 15.6108 23.7899C15.6829 23.7246 15.7889 23.6287 15.9243 23.506C16.195 23.2605 16.5834 22.908 17.0544 22.4792C17.9962 21.6218 19.2684 20.4592 20.5896 19.2389C23.2075 16.8209 26.0872 14.1136 26.9028 13.1517L26.3307 12.6667ZM3.66406 12.6667L4.23801 12.1839C2.86635 10.5532 2.41406 9.28397 2.41406 7.70576H1.66406H0.914062C0.914062 9.6937 1.53023 11.295 3.09012 13.1495L3.66406 12.6667ZM14.9974 23.3333C15.5005 22.7771 15.5004 22.7771 15.5004 22.777C15.5003 22.7769 15.5002 22.7768 15.5 22.7767C15.4998 22.7764 15.4993 22.776 15.4987 22.7755C15.4975 22.7744 15.4958 22.7728 15.4934 22.7707C15.4887 22.7664 15.4816 22.7601 15.4723 22.7516C15.4537 22.7348 15.426 22.7097 15.3897 22.6768C15.3172 22.6112 15.2107 22.5146 15.0745 22.3911C14.8022 22.1439 14.4114 21.7889 13.9379 21.3574C12.9907 20.4942 11.7128 19.3255 10.3894 18.1026C7.71652 15.6327 4.93195 13.0089 4.23801 12.1839L3.66406 12.6667L3.09012 13.1495C3.86195 14.067 6.74405 16.7765 9.37139 19.2043C10.6981 20.4303 11.9787 21.6015 12.9275 22.4661C13.402 22.8984 13.7935 23.2542 14.0666 23.5019C14.2031 23.6258 14.3099 23.7226 14.3827 23.7886C14.4191 23.8215 14.447 23.8468 14.4658 23.8638C14.4752 23.8723 14.4823 23.8787 14.4871 23.883C14.4895 23.8852 14.4913 23.8868 14.4925 23.8879C14.4931 23.8885 14.4935 23.8889 14.4938 23.8892C14.494 23.8893 14.4941 23.8894 14.4942 23.8895C14.4943 23.8896 14.4943 23.8896 14.9974 23.3333Z" fill="#EC7D3F"/>
</svg>
