<svg width="64" height="64" viewBox="0 0 64 64" fill="none" xmlns="http://www.w3.org/2000/svg">
<path fill-rule="evenodd" clip-rule="evenodd" d="M38 54H52C52.5304 54 53.0391 53.7893 53.4142 53.4142C53.7893 53.0391 54 52.5304 54 52C54 51.4696 53.7893 50.9609 53.4142 50.5858C53.0391 50.2107 52.5304 50 52 50H38C37.4696 50 36.9609 50.2107 36.5858 50.5858C36.2107 50.9609 36 51.4696 36 52C36 52.5304 36.2107 53.0391 36.5858 53.4142C36.9609 53.7893 37.4696 54 38 54ZM20.022 10H19.978C19.6583 10.0035 19.3442 10.0838 19.062 10.234L19.036 10.248C18.9538 10.293 18.875 10.3438 18.8 10.4L10.8 16.4C10.3757 16.7183 10.0951 17.1921 10.0201 17.7172C9.94509 18.2423 10.0817 18.7757 10.4 19.2C10.7183 19.6243 11.1921 19.9049 11.7172 19.9799C12.2423 20.0549 12.7757 19.9183 13.2 19.6L18 16V48L13.2 44.4C12.9899 44.2424 12.7508 44.1278 12.4964 44.0626C12.2419 43.9974 11.9772 43.983 11.7172 44.0201C11.1921 44.0951 10.7183 44.3757 10.4 44.8C10.0817 45.2243 9.94509 45.7577 10.0201 46.2828C10.0951 46.8079 10.3757 47.2817 10.8 47.6L18.8 53.6C18.875 53.6562 18.9538 53.707 19.036 53.752L19.062 53.766C19.3442 53.9162 19.6583 53.9965 19.978 54H20.022C20.3417 53.9965 20.6558 53.9162 20.938 53.766L20.964 53.752C21.0462 53.707 21.1251 53.6562 21.2 53.6L29.2 47.6C29.6244 47.2817 29.9049 46.8079 29.9799 46.2828C30.0549 45.7577 29.9183 45.2243 29.6 44.8C29.2818 44.3757 28.808 44.0951 28.2829 44.0201C27.7578 43.9451 27.2244 44.0817 26.8 44.4L22 48V16L26.8 19.6C27.2244 19.9183 27.7578 20.0549 28.2829 19.9799C28.808 19.9049 29.2818 19.6243 29.6 19.2C29.9183 18.7757 30.0549 18.2423 29.9799 17.7172C29.9049 17.1921 29.6244 16.7183 29.2 16.4L21.2 10.4C21.1251 10.3438 21.0462 10.293 20.964 10.248L20.938 10.234C20.6558 10.0838 20.3417 10.0035 20.022 10ZM38 44H52C52.5304 44 53.0391 43.7893 53.4142 43.4142C53.7893 43.0391 54 42.5304 54 42C54 41.4696 53.7893 40.9609 53.4142 40.5858C53.0391 40.2107 52.5304 40 52 40H38C37.4696 40 36.9609 40.2107 36.5858 40.5858C36.2107 40.9609 36 41.4696 36 42C36 42.5304 36.2107 43.0391 36.5858 43.4142C36.9609 43.7893 37.4696 44 38 44ZM38 34H52C52.5304 34 53.0391 33.7893 53.4142 33.4142C53.7893 33.0391 54 32.5304 54 32C54 31.4696 53.7893 30.9609 53.4142 30.5858C53.0391 30.2107 52.5304 30 52 30H38C37.4696 30 36.9609 30.2107 36.5858 30.5858C36.2107 30.9609 36 31.4696 36 32C36 32.5304 36.2107 33.0391 36.5858 33.4142C36.9609 33.7893 37.4696 34 38 34ZM38 24H52C52.5304 24 53.0391 23.7893 53.4142 23.4142C53.7893 23.0391 54 22.5304 54 22C54 21.4696 53.7893 20.9609 53.4142 20.5858C53.0391 20.2107 52.5304 20 52 20H38C37.4696 20 36.9609 20.2107 36.5858 20.5858C36.2107 20.9609 36 21.4696 36 22C36 22.5304 36.2107 23.0391 36.5858 23.4142C36.9609 23.7893 37.4696 24 38 24ZM38 14H52C52.5304 14 53.0391 13.7893 53.4142 13.4142C53.7893 13.0391 54 12.5304 54 12C54 11.4696 53.7893 10.9609 53.4142 10.5858C53.0391 10.2107 52.5304 10 52 10H38C37.4696 10 36.9609 10.2107 36.5858 10.5858C36.2107 10.9609 36 11.4696 36 12C36 12.5304 36.2107 13.0391 36.5858 13.4142C36.9609 13.7893 37.4696 14 38 14Z" fill="#EC7D3F"/>
</svg>
