<svg width="24" height="24" viewBox="0 0 24 24" fill="none" xmlns="http://www.w3.org/2000/svg">
<path d="M19.7801 4.2197C19.5663 4.00521 19.2453 3.94221 18.9656 4.05545L2.46548 10.8055C2.15723 10.9322 1.96896 11.2465 2.00422 11.578C2.02103 11.7393 2.08969 11.8908 2.1999 12.0098C2.31011 12.1288 2.45593 12.2089 2.61549 12.238L10.3548 13.645L11.7626 21.3843C11.8218 21.712 12.0903 21.961 12.4218 21.9963C12.4481 21.9985 12.4743 22 12.4998 22C12.8013 22 13.0781 21.8178 13.1943 21.5335L19.9444 5.03347C20.0001 4.89671 20.0143 4.74654 19.985 4.60178C19.9558 4.45702 19.8845 4.32411 19.7801 4.2197Z" fill="#EC7D3F"/>
</svg>
