<svg width="32" height="32" viewBox="0 0 32 32" fill="none" xmlns="http://www.w3.org/2000/svg">
<path d="M28.7852 2.17578C29.0153 2.02252 29.3109 2.00821 29.5547 2.13867C29.7985 2.2692 29.9512 2.52323 29.9512 2.7998V23.9199C29.9511 24.1706 29.8257 24.4049 29.6172 24.5439L21.6973 29.8242C21.4609 29.9818 21.1549 29.9915 20.9082 29.8506L12.04 24.7832L3.17285 29.8506C2.94086 29.9832 2.65597 29.9826 2.4248 29.8486C2.19368 29.7145 2.05092 29.4674 2.05078 29.2002V8.08008C2.05078 7.81094 2.19504 7.56224 2.42871 7.42871L11.6689 2.14844L11.7578 2.10547C11.9695 2.01915 12.2114 2.03321 12.4131 2.14844L21.251 7.19824L28.7852 2.17578ZM3.55078 8.51465V27.9072L11.291 23.4844V4.0918L3.55078 8.51465ZM12.791 23.4844L20.5312 27.9072V8.51562L12.791 4.0918V23.4844ZM22.0312 8.48047V27.7979L28.4512 23.5186V4.20117L22.0312 8.48047Z" fill="#181817"/>
</svg>
