<svg width="32" height="32" viewBox="0 0 32 32" fill="none" xmlns="http://www.w3.org/2000/svg">
<path d="M28.7812 2.17578C29.0114 2.02252 29.307 2.00821 29.5508 2.13867C29.7946 2.2692 29.9473 2.52323 29.9473 2.7998V23.9199C29.9472 24.1706 29.8218 24.4049 29.6133 24.5439L21.6934 29.8242C21.457 29.9818 21.1509 29.9915 20.9043 29.8506L12.0361 24.7832L3.16895 29.8506C2.93696 29.9831 2.65206 29.9826 2.4209 29.8486C2.18978 29.7145 2.04701 29.4674 2.04688 29.2002V8.08008C2.04688 7.81094 2.19113 7.56224 2.4248 7.42871L11.665 2.14844L11.7539 2.10547C11.9656 2.01915 12.2075 2.03321 12.4092 2.14844L21.2471 7.19824L28.7812 2.17578ZM3.54688 8.51465V27.9072L11.2871 23.4844V4.0918L3.54688 8.51465ZM12.7871 23.4844L20.5273 27.9072V8.51562L12.7871 4.0918V23.4844ZM22.0273 8.48047V27.7979L28.4473 23.5186V4.20117L22.0273 8.48047Z" fill="#EC7D3F"/>
</svg>
