<svg width="32" height="32" viewBox="0 0 32 32" fill="none" xmlns="http://www.w3.org/2000/svg">
<path d="M11.7539 2.10541C11.9656 2.0191 12.2075 2.03315 12.4092 2.14838L21.2471 7.19819L28.7812 2.17572C29.0114 2.02247 29.307 2.00815 29.5508 2.13862C29.7946 2.26914 29.9473 2.52318 29.9473 2.79975V23.9199C29.9472 24.1705 29.8218 24.4048 29.6133 24.5439L21.6934 29.8242C21.457 29.9817 21.1509 29.9915 20.9043 29.8505L12.0361 24.7831L3.16895 29.8505C2.93696 29.9831 2.65206 29.9825 2.4209 29.8486C2.18978 29.7145 2.04701 29.4673 2.04688 29.2001V8.08002C2.04688 7.81088 2.19113 7.56219 2.4248 7.42865L11.665 2.14838L11.7539 2.10541ZM3.54688 8.51459V27.9072L11.2871 23.4843V4.09174L3.54688 8.51459ZM12.7871 23.4843L20.5273 27.9072V8.51557L12.7871 4.09174V23.4843ZM22.0273 8.48041V27.7978L28.4473 23.5185V4.20112L22.0273 8.48041Z" fill="#EC7D3F"/>
</svg>
