<svg width="20" height="20" viewBox="0 0 20 20" fill="none" xmlns="http://www.w3.org/2000/svg">
<path d="M16.7812 2.17599C17.0114 2.02273 17.307 2.00842 17.5508 2.13888C17.7946 2.26941 17.9473 2.52344 17.9473 2.80002V14.3195C17.9473 14.5701 17.8216 14.8044 17.6133 14.9436L13.293 17.8244C13.0566 17.9819 12.7515 17.9917 12.5049 17.8508L7.83691 15.1828L3.16895 17.8508C2.93696 17.9834 2.65206 17.9828 2.4209 17.8488C2.18978 17.7147 2.04701 17.4676 2.04688 17.2004V5.6799C2.04692 5.4108 2.19116 5.16205 2.4248 5.02853L7.46484 2.14865L7.55371 2.10568C7.76544 2.0193 8.0073 2.03343 8.20898 2.14865L12.8467 4.79806L16.7812 2.17599ZM3.54688 6.11447V15.9074L7.08691 13.885V4.09201L3.54688 6.11447ZM8.58691 13.885L12.127 15.9074V6.11447L8.58691 4.09201V13.885ZM13.627 6.08127V15.7981L16.4473 13.9182V4.20041L13.627 6.08127Z" fill="#EC7D3F"/>
</svg>
