<svg width="64" height="64" viewBox="0 0 64 64" fill="none" xmlns="http://www.w3.org/2000/svg">
<path d="M31.9987 5.33203C26.7245 5.33203 21.5688 6.896 17.1835 9.82617C12.7982 12.7563 9.38026 16.9211 7.36192 21.7938C5.34359 26.6665 4.8155 32.0283 5.84444 37.2011C6.87337 42.3739 9.41313 47.1255 13.1425 50.8549C16.8719 54.5843 21.6235 57.124 26.7963 58.1529C31.9691 59.1819 37.3309 58.6538 42.2036 56.6355C47.0763 54.6171 51.241 51.1992 54.1712 46.8139C57.1014 42.4286 58.6654 37.2728 58.6654 31.9987C58.6575 24.9287 55.8454 18.1505 50.8462 13.1512C45.8469 8.15195 39.0687 5.33991 31.9987 5.33203ZM31.9987 54.9444C27.4605 54.9444 23.0241 53.5987 19.2507 51.0774C15.4773 48.556 12.5363 44.9724 10.7996 40.7796C9.0629 36.5868 8.6085 31.9732 9.49387 27.5222C10.3792 23.0712 12.5646 18.9826 15.7736 15.7736C18.9826 12.5646 23.0712 10.3792 27.5222 9.49385C31.9732 8.60849 36.5869 9.06289 40.7796 10.7996C44.9724 12.5363 48.5561 15.4773 51.0774 19.2507C53.5987 23.0241 54.9444 27.4604 54.9444 31.9987C54.9379 38.0823 52.5183 43.9148 48.2165 48.2165C43.9148 52.5182 38.0823 54.9378 31.9987 54.9444ZM34.4793 20.2157H27.0375C26.544 20.2157 26.0708 20.4118 25.7219 20.7607C25.373 21.1096 25.177 21.5828 25.177 22.0762V41.9212C25.177 42.4146 25.373 42.8878 25.7219 43.2367C26.0708 43.5856 26.544 43.7816 27.0375 43.7816C27.5309 43.7816 28.0041 43.5856 28.353 43.2367C28.7019 42.8878 28.8979 42.4146 28.8979 41.9212V33.8591H34.4793C36.2885 33.8591 38.0237 33.1404 39.303 31.8611C40.5823 30.5818 41.301 28.8467 41.301 27.0374C41.301 25.2282 40.5823 23.4931 39.303 22.2138C38.0237 20.9345 36.2885 20.2157 34.4793 20.2157ZM34.4793 30.1382H28.8979V23.9367H34.4793C35.3017 23.9367 36.0904 24.2634 36.6719 24.8449C37.2534 25.4264 37.5801 26.2151 37.5801 27.0374C37.5801 27.8598 37.2534 28.6485 36.6719 29.23C36.0904 29.8115 35.3017 30.1382 34.4793 30.1382Z" fill="#EC7D3F"/>
</svg>
