<svg width="20" height="21" viewBox="0 0 20 21" fill="none" xmlns="http://www.w3.org/2000/svg">
<path d="M17.3383 8.52148L16.9938 9.35294C17.4444 9.53964 17.9617 9.33342 18.1603 8.88794L17.3383 8.52148ZM2.27281 12.4798L2.61731 11.6484C2.39114 11.5547 2.13656 11.5571 1.91226 11.6552C1.68795 11.7533 1.51328 11.9385 1.4285 12.1682L2.27281 12.4798ZM4.79439 14.4988C5.25359 14.689 5.78009 14.471 5.97035 14.0118C6.16061 13.5526 5.94259 13.0261 5.48339 12.8359L5.13889 13.6673L4.79439 14.4988ZM0.405687 14.939C0.233559 15.4053 0.472033 15.9228 0.938334 16.095C1.40464 16.2671 1.92218 16.0286 2.09431 15.5623L1.25 15.2507L0.405687 14.939ZM19.572 5.72127C19.7744 5.26729 19.5704 4.73519 19.1165 4.5328C18.6625 4.33041 18.1304 4.53438 17.928 4.98836L18.75 5.35482L19.572 5.72127ZM14.8167 6.50253C14.3575 6.31227 13.831 6.53029 13.6408 6.98949C13.4505 7.44869 13.6685 7.97518 14.1277 8.16544L14.4722 7.33398L14.8167 6.50253ZM1.35742 8.47794C1.24549 8.96223 1.54734 9.44557 2.03162 9.55751C2.51591 9.66944 2.99925 9.36759 3.11119 8.88331L2.2343 8.68062L1.35742 8.47794ZM18.2418 12.5741C18.3566 12.0904 18.0576 11.6053 17.574 11.4906C17.0903 11.3758 16.6052 11.6748 16.4905 12.1584L17.3661 12.3662L18.2418 12.5741ZM9.80556 2.58398V3.48398C12.9979 3.48398 15.6985 5.70767 16.4658 8.74212L17.3383 8.52148L18.2108 8.30085C17.2513 4.50627 13.8615 1.68398 9.80556 1.68398V2.58398ZM9.80556 18.4173V17.5173C6.61321 17.5173 3.91266 15.2936 3.14535 12.2592L2.27281 12.4798L1.40028 12.7005C2.3598 16.495 5.74963 19.3173 9.80556 19.3173V18.4173ZM2.27281 12.4798L1.92831 13.3113L4.79439 14.4988L5.13889 13.6673L5.48339 12.8359L2.61731 11.6484L2.27281 12.4798ZM2.27281 12.4798L1.4285 12.1682L0.405687 14.939L1.25 15.2507L2.09431 15.5623L3.11712 12.7915L2.27281 12.4798ZM17.3383 8.52148L18.1603 8.88794L19.572 5.72127L18.75 5.35482L17.928 4.98836L16.5163 8.15503L17.3383 8.52148ZM17.3383 8.52148L17.6828 7.69003L14.8167 6.50253L14.4722 7.33398L14.1277 8.16544L16.9938 9.35294L17.3383 8.52148ZM2.2343 8.68062L3.11119 8.88331C3.82912 5.77722 6.56384 3.48398 9.80556 3.48398V2.58398V1.68398C5.68685 1.68398 2.25513 4.5941 1.35742 8.47794L2.2343 8.68062ZM17.3661 12.3662L16.4905 12.1584C15.7582 15.2441 13.0332 17.5173 9.80556 17.5173V18.4173V19.3173C13.9063 19.3173 17.3261 16.4324 18.2418 12.5741L17.3661 12.3662Z" fill="#EC7D3F"/>
</svg>
