<svg width="94" height="94" viewBox="0 0 94 94" fill="none" xmlns="http://www.w3.org/2000/svg">
<mask id="path-1-outside-1_2648_628" maskUnits="userSpaceOnUse" x="18.8125" y="3.53903" width="71" height="71" fill="black">
<rect fill="white" x="18.8125" y="3.53903" width="71" height="71"/>
<path d="M24.8125 45.6041C24.8125 45.6041 45.5263 24.8903 55.1897 15.227C58.8315 11.585 63.771 9.53903 68.9214 9.53903H84.4586V25.076C84.4586 30.2264 82.4126 35.1661 78.7707 38.8081L48.3935 69.1849"/>
</mask>
<path d="M21.2199 42.0115C19.2358 43.9957 19.2358 47.2125 21.2199 49.1967C23.2041 51.1808 26.4209 51.1808 28.4051 49.1967L21.2199 42.0115ZM55.1897 15.227L58.7822 18.8196L58.7823 18.8195L55.1897 15.227ZM84.4586 9.53903H89.5392C89.5392 6.73307 87.2645 4.45839 84.4586 4.45839V9.53903ZM84.4586 25.076H79.3779V25.076L84.4586 25.076ZM78.7707 38.8081L82.3632 42.4007L82.3633 42.4006L78.7707 38.8081ZM44.801 65.5923C42.8168 67.5764 42.8168 70.7933 44.8009 72.7774C46.785 74.7615 50.0019 74.7616 51.986 72.7775L44.801 65.5923ZM24.8125 45.6041C28.4051 49.1967 28.4051 49.1966 28.4053 49.1964C28.4055 49.1963 28.4057 49.196 28.406 49.1957C28.4066 49.1951 28.4076 49.1941 28.4088 49.1929C28.4114 49.1904 28.4151 49.1866 28.4201 49.1816C28.4301 49.1716 28.445 49.1567 28.4648 49.1369C28.5043 49.0975 28.563 49.0387 28.64 48.9617C28.7941 48.8076 29.0213 48.5804 29.314 48.2877C29.8992 47.7025 30.7461 46.8556 31.7926 45.8091C33.8855 43.7162 36.7767 40.825 39.9699 37.6318C46.3563 31.2455 53.9505 23.6512 58.7822 18.8196L55.1897 15.227L51.5971 11.6344C46.7654 16.4661 39.1711 24.0604 32.7848 30.4467C29.5916 33.6399 26.7004 36.5311 24.6075 38.624C23.561 39.6705 22.7141 40.5174 22.1289 41.1026C21.8362 41.3953 21.609 41.6225 21.4549 41.7766C21.3779 41.8536 21.3191 41.9123 21.2797 41.9518C21.2599 41.9716 21.245 41.9865 21.235 41.9965C21.23 42.0015 21.2262 42.0052 21.2237 42.0078C21.2225 42.009 21.2215 42.01 21.2209 42.0106C21.2206 42.0109 21.2203 42.0111 21.2202 42.0113C21.22 42.0115 21.2199 42.0115 24.8125 45.6041ZM55.1897 15.227L58.7823 18.8195C61.4713 16.1304 65.1184 14.6197 68.9214 14.6197V9.53903V4.45839C62.4236 4.45839 56.1918 7.03959 51.597 11.6345L55.1897 15.227ZM68.9214 9.53903V14.6197H84.4586V9.53903V4.45839H68.9214V9.53903ZM84.4586 9.53903H79.3779V25.076H84.4586H89.5392V9.53903H84.4586ZM84.4586 25.076L79.3779 25.076C79.3779 28.879 77.8672 32.5264 75.1781 35.2156L78.7707 38.8081L82.3633 42.4006C86.958 37.8058 89.5392 31.5739 89.5392 25.0759L84.4586 25.076ZM78.7707 38.8081L75.1781 35.2155L44.801 65.5923L48.3935 69.1849L51.986 72.7775L82.3632 42.4007L78.7707 38.8081Z" fill="#EC7D3F" mask="url(#path-1-outside-1_2648_628)"/>
<mask id="path-3-outside-2_2648_628" maskUnits="userSpaceOnUse" x="11.8672" y="52.1135" width="30" height="30" fill="black">
<rect fill="white" x="11.8672" y="52.1135" width="30" height="30"/>
<path d="M35.8899 66.4382L32.2277 70.1005C30.0939 72.2344 27.4203 73.7481 24.4927 74.48L17.8672 76.1364L19.5236 69.5108C20.2555 66.5833 21.7692 63.9099 23.9029 61.7762L27.5653 58.1135"/>
</mask>
<path d="M39.4825 70.0307C41.4666 68.0465 41.4666 64.8296 39.4825 62.8456C37.4983 60.8615 34.2814 60.8615 32.2973 62.8456L39.4825 70.0307ZM32.2277 70.1005L28.6351 66.508L28.635 66.508L32.2277 70.1005ZM24.4927 74.48L25.725 79.4089L25.725 79.4089L24.4927 74.48ZM17.8672 76.1364L12.9382 74.9041C12.5054 76.6355 13.0127 78.467 14.2746 79.7289C15.5366 80.9909 17.3681 81.4982 19.0994 81.0653L17.8672 76.1364ZM19.5236 69.5108L24.4526 70.7431L24.4526 70.743L19.5236 69.5108ZM23.9029 61.7762L27.4955 65.3687L27.4956 65.3686L23.9029 61.7762ZM31.158 61.7059C33.142 59.7217 33.1419 56.5048 31.1577 54.5208C29.1735 52.5368 25.9566 52.5369 23.9726 54.5211L31.158 61.7059ZM35.8899 66.4382L32.2973 62.8456L28.6351 66.508L32.2277 70.1005L35.8203 73.693L39.4825 70.0307L35.8899 66.4382ZM32.2277 70.1005L28.635 66.508C27.1525 67.9906 25.2948 69.0424 23.2605 69.551L24.4927 74.48L25.725 79.4089C29.5458 78.4537 33.0353 76.4781 35.8203 73.693L32.2277 70.1005ZM24.4927 74.48L23.2605 69.551L16.6349 71.2074L17.8672 76.1364L19.0994 81.0653L25.725 79.4089L24.4927 74.48ZM17.8672 76.1364L22.7961 77.3686L24.4526 70.7431L19.5236 69.5108L14.5947 68.2785L12.9382 74.9041L17.8672 76.1364ZM19.5236 69.5108L24.4526 70.743C24.9611 68.709 26.0128 66.8514 27.4955 65.3687L23.9029 61.7762L20.3103 58.1837C17.5255 60.9685 15.5499 64.4577 14.5947 68.2786L19.5236 69.5108ZM23.9029 61.7762L27.4956 65.3686L31.158 61.7059L27.5653 58.1135L23.9726 54.5211L20.3102 58.1838L23.9029 61.7762Z" fill="#EC7D3F" mask="url(#path-3-outside-2_2648_628)"/>
<mask id="path-5-outside-3_2648_628" maskUnits="userSpaceOnUse" x="3.53906" y="24.3507" width="66" height="66" fill="black">
<rect fill="white" x="3.53906" y="24.3507" width="66" height="66"/>
<path d="M40.063 30.3507L26.8543 30.351C25.7606 30.351 24.6778 30.5665 23.6674 30.9851C22.6571 31.4038 21.7392 32.0174 20.9662 32.7909L9.53906 44.2251H13.7016C18.4388 44.2251 23.1297 45.1583 27.5063 46.9712C31.883 48.7841 35.8597 51.4411 39.2094 54.7908C42.5592 58.1406 45.2163 62.1173 47.0292 66.494C48.842 70.8706 49.7751 75.5614 49.7751 80.2986V84.461L61.2094 73.0339C61.983 72.2608 62.5967 71.3432 63.0154 70.3328C63.4341 69.3225 63.6496 68.2394 63.6496 67.1457L63.6496 53.9372"/>
</mask>
<path d="M26.8543 30.351L26.8543 35.4317H26.8544L26.8543 30.351ZM20.9662 32.7909L17.3725 29.1994L17.3725 29.1995L20.9662 32.7909ZM9.53906 44.2251L5.94538 40.6337C4.49299 42.087 4.05889 44.272 4.84546 46.1701C5.63203 48.0682 7.48442 49.3058 9.53906 49.3058V44.2251ZM13.7016 44.2251V39.1445V44.2251ZM49.7751 80.2986H44.6945H49.7751ZM49.7751 84.461H44.6945C44.6945 86.5156 45.932 88.368 47.8301 89.1546C49.7282 89.9412 51.9132 89.5071 53.3665 88.0547L49.7751 84.461ZM61.2094 73.0339L57.618 69.4402L57.618 69.4402L61.2094 73.0339ZM63.6496 67.1457H68.7302H63.6496ZM40.063 30.3507L40.0629 25.27L26.8541 25.2704L26.8543 30.351L26.8544 35.4317L40.0631 35.4313L40.063 30.3507ZM26.8543 30.351L26.8542 25.2704C25.0933 25.2704 23.3495 25.6173 21.7225 26.2915L23.6674 30.9851L25.6124 35.6787C26.006 35.5156 26.428 35.4317 26.8543 35.4317L26.8543 30.351ZM23.6674 30.9851L21.7225 26.2915C20.0956 26.9656 18.6175 27.9537 17.3725 29.1994L20.9662 32.7909L24.5598 36.3824C24.861 36.081 25.2186 35.8419 25.6124 35.6787L23.6674 30.9851ZM20.9662 32.7909L17.3725 29.1995L5.94538 40.6337L9.53906 44.2251L13.1327 47.8166L24.5598 36.3823L20.9662 32.7909ZM9.53906 44.2251V49.3058H13.7016V44.2251V39.1445H9.53906V44.2251ZM13.7016 44.2251V49.3058C17.7715 49.3058 21.8017 50.1075 25.5621 51.6651L27.5063 46.9712L29.4506 42.2773C24.4577 40.2092 19.1061 39.1445 13.7016 39.1445V44.2251ZM27.5063 46.9712L25.5621 51.6651C29.3224 53.2227 32.739 55.5055 35.6169 58.3834L39.2094 54.7908L42.802 51.1983C38.9804 47.3767 34.4436 44.3455 29.4506 42.2773L27.5063 46.9712ZM39.2094 54.7908L35.6169 58.3834C38.4948 61.2613 40.7777 64.678 42.3353 68.4383L47.0292 66.494L51.7231 64.5497C49.6549 59.5567 46.6235 55.0198 42.802 51.1983L39.2094 54.7908ZM47.0292 66.494L42.3353 68.4383C43.8928 72.1985 44.6945 76.2286 44.6945 80.2986H49.7751H54.8558C54.8558 74.8942 53.7913 69.5428 51.7231 64.5497L47.0292 66.494ZM49.7751 80.2986H44.6945V84.461H49.7751H54.8558V80.2986H49.7751ZM49.7751 84.461L53.3665 88.0547L64.8009 76.6276L61.2094 73.0339L57.618 69.4402L46.1837 80.8673L49.7751 84.461ZM61.2094 73.0339L64.8008 76.6276C66.0462 75.3831 67.0345 73.9054 67.709 72.2779L63.0154 70.3328L58.3218 68.3878C58.1588 68.781 57.9199 69.1385 57.618 69.4402L61.2094 73.0339ZM63.0154 70.3328L67.709 72.2779C68.3832 70.6508 68.7302 68.9067 68.7302 67.1457H63.6496L58.5689 67.1457C58.5689 67.572 58.4849 67.9942 58.3218 68.3878L63.0154 70.3328ZM63.6496 67.1457H68.7302L68.7302 53.9372L63.6496 53.9372L58.5689 53.9372L58.5689 67.1457L63.6496 67.1457Z" fill="#EC7D3F" mask="url(#path-5-outside-3_2648_628)"/>
<path d="M58.0977 25.0354C60.9792 25.0354 63.7436 26.1795 65.7812 28.2171C67.8187 30.2546 68.9628 33.0183 68.9629 35.8997C68.9629 38.7812 67.8188 41.5457 65.7812 43.5833C63.7436 45.6209 60.9792 46.7649 58.0977 46.7649C55.2163 46.7648 52.4525 45.6208 50.415 43.5833C48.3774 41.5457 47.2334 38.7812 47.2334 35.8997C47.2335 33.0183 48.3776 30.2546 50.415 28.2171C52.4525 26.1796 55.2163 25.0355 58.0977 25.0354Z" stroke="#EC7D3F" stroke-width="5.08065"/>
</svg>
