<svg width="24" height="24" viewBox="0 0 24 24" fill="none" xmlns="http://www.w3.org/2000/svg">
<path d="M21.7068 20.2923L16.3109 14.8966C17.4052 13.4988 17.9999 11.7748 17.9998 9.99972C17.9998 5.58887 14.4109 2 9.99992 2C5.58896 2 2 5.58887 2 9.99972C2 14.4106 5.58896 17.9994 9.99992 17.9994C11.7749 17.9994 13.4989 17.4052 14.8969 16.3115L20.2928 21.7073C20.4805 21.8948 20.7349 22.0001 21.0001 22C21.2654 21.9999 21.5198 21.8944 21.7073 21.7068C21.8948 21.5192 22.0001 21.2647 22 20.9995C21.9999 20.7342 21.8944 20.4798 21.7068 20.2923ZM3.99998 9.99972C3.99998 6.69083 6.69095 3.99993 9.99992 3.99993C13.3089 3.99993 15.9999 6.69083 15.9999 9.99972C15.9999 13.3086 13.3089 15.9995 9.99992 15.9995C6.69095 15.9995 3.99998 13.3086 3.99998 9.99972Z" fill="#818181"/>
</svg>
