<svg width="20" height="20" viewBox="0 0 20 20" fill="none" xmlns="http://www.w3.org/2000/svg">
<path d="M19.7068 18.2923L14.3109 12.8966C15.4052 11.4988 15.9999 9.77483 15.9998 7.99972C15.9998 3.58887 12.4109 0 7.99992 0C3.58896 0 0 3.58887 0 7.99972C0 12.4106 3.58896 15.9994 7.99992 15.9994C9.77491 15.9994 11.4989 15.4052 12.8969 14.3115L18.2928 19.7073C18.4805 19.8948 18.7349 20.0001 19.0001 20C19.2654 19.9999 19.5198 19.8944 19.7073 19.7068C19.8948 19.5192 20.0001 19.2647 20 18.9995C19.9999 18.7342 19.8944 18.4798 19.7068 18.2923ZM1.99998 7.99972C1.99998 4.69083 4.69095 1.99993 7.99992 1.99993C11.3089 1.99993 13.9999 4.69083 13.9999 7.99972C13.9999 11.3086 11.3089 13.9995 7.99992 13.9995C4.69095 13.9995 1.99998 11.3086 1.99998 7.99972Z" fill="white"/>
</svg>
