<svg width="28" height="28" viewBox="0 0 28 28" fill="none" xmlns="http://www.w3.org/2000/svg">
<path d="M25.6482 23.9508L19.173 17.4759C20.4863 15.7986 21.1999 13.7298 21.1998 11.5997C21.1998 6.30665 16.8931 2 11.5999 2C6.30676 2 2 6.30665 2 11.5997C2 16.8927 6.30676 21.1993 11.5999 21.1993C13.7299 21.1993 15.7986 20.4862 17.4763 19.1738L23.9513 25.6488C24.1766 25.8738 24.4819 26.0001 24.8002 26C25.1185 25.9999 25.4238 25.8733 25.6488 25.6482C25.8738 25.423 26.0001 25.1177 26 24.7994C25.9999 24.4811 25.8733 24.1758 25.6482 23.9508ZM4.39998 11.5997C4.39998 7.629 7.62914 4.39992 11.5999 4.39992C15.5706 4.39992 18.7998 7.629 18.7998 11.5997C18.7998 15.5703 15.5706 18.7994 11.5999 18.7994C7.62914 18.7994 4.39998 15.5703 4.39998 11.5997Z" fill="#494949"/>
</svg>
