<svg width="25" height="24" viewBox="0 0 25 24" fill="none" xmlns="http://www.w3.org/2000/svg">
<path d="M7.1 5.70015C7.1 6.69426 7.90589 7.50015 8.9 7.50015C9.89411 7.50015 10.7 6.69426 10.7 5.70015C10.7 4.70603 9.89411 3.90015 8.9 3.90015C7.90589 3.90015 7.1 4.70603 7.1 5.70015ZM7.1 5.70015H3.5M7.1 18.3001C7.1 19.2943 7.90589 20.1001 8.9 20.1001C9.89411 20.1001 10.7 19.2943 10.7 18.3001C10.7 17.306 9.89411 16.5001 8.9 16.5001C7.90589 16.5001 7.1 17.306 7.1 18.3001ZM7.1 18.3001H3.5M9.88182 12.0001H3.5M21.5 12.0001H16.1M16.1 12.0001C16.1 12.9943 15.2941 13.8001 14.3 13.8001C13.3059 13.8001 12.5 12.9943 12.5 12.0001C12.5 11.006 13.3059 10.2001 14.3 10.2001C15.2941 10.2001 16.1 11.006 16.1 12.0001ZM21.5 5.70015H13.3182M21.5 18.3001H13.3182" stroke="#EC7D3F" stroke-width="1.6" stroke-linecap="round"/>
</svg>
