<svg width="32" height="32" viewBox="0 0 32 32" fill="none" xmlns="http://www.w3.org/2000/svg">
<path d="M23.4035 22.0793C22.3821 22.0793 21.4583 22.4882 20.7877 23.1435L12.1256 16.9799C12.2372 16.6365 12.3001 16.2715 12.3001 15.8912C12.3001 15.5101 12.2369 15.1444 12.125 14.8002L20.6528 8.7204C21.3315 9.45592 22.3128 9.92048 23.4035 9.92048C25.4471 9.92048 27.1089 8.29338 27.1089 6.293C27.1089 4.29316 25.4468 2.66669 23.4035 2.66669C21.3591 2.66669 19.6958 4.29337 19.6958 6.293C19.6958 6.60442 19.7386 6.90499 19.8145 7.19212L11.2082 13.3277C10.5377 12.6725 9.61388 12.2637 8.5921 12.2637C6.5486 12.2637 4.88672 13.8907 4.88672 15.8908C4.88672 17.8902 6.54896 19.5163 8.5921 19.5163C9.61425 19.5163 10.5381 19.1073 11.2092 18.4515L19.8713 24.6148C19.7593 24.9592 19.6958 25.3255 19.6958 25.7071C19.6958 27.7071 21.3591 29.3334 23.4035 29.3334C25.4471 29.3334 27.1089 27.7067 27.1089 25.7071C27.1092 23.7069 25.4471 22.0793 23.4035 22.0793ZM23.4035 4.38472C24.4783 4.38472 25.3528 5.24086 25.3528 6.293C25.3528 7.34608 24.4783 8.20245 23.4035 8.20245C22.3276 8.20245 21.452 7.34592 21.452 6.293C21.452 5.24101 22.3276 4.38472 23.4035 4.38472ZM8.59239 17.7985C7.51762 17.7985 6.64322 16.9429 6.64322 15.8912C6.64322 14.8383 7.51774 13.9819 8.59239 13.9819C9.66839 13.9819 10.5439 14.8385 10.5439 15.8912C10.5439 16.9427 9.6685 17.7985 8.59239 17.7985ZM23.4035 27.6159C22.3276 27.6159 21.452 26.7596 21.452 25.7077C21.452 24.6544 22.3277 23.7973 23.4035 23.7973C24.4782 23.7973 25.3528 24.6543 25.3528 25.7077C25.3531 26.7597 24.4783 27.6159 23.4035 27.6159Z" fill="#494949" stroke="#181817" stroke-width="0.2"/>
</svg>
