<svg width="32" height="32" viewBox="0 0 32 32" fill="none" xmlns="http://www.w3.org/2000/svg">
<path d="M10.5146 9.60889C10.7588 9.60901 10.9933 9.70589 11.166 9.87842C11.3387 10.051 11.4355 10.2857 11.4355 10.5298V23.6245L14.2432 20.8198L14.2461 20.8179C14.4207 20.6553 14.652 20.5665 14.8906 20.5708C15.1292 20.575 15.3567 20.6718 15.5254 20.8403C15.6942 21.009 15.7907 21.2366 15.7949 21.4751C15.7991 21.7137 15.7106 21.9442 15.5479 22.1187L15.5459 22.1216L11.165 26.4985C10.9923 26.6703 10.7584 26.767 10.5146 26.7671C10.2707 26.7671 10.0362 26.6704 9.86328 26.4985L5.48242 22.1216L5.48047 22.1187C5.31774 21.9442 5.2292 21.7137 5.2334 21.4751C5.23761 21.2366 5.33412 21.009 5.50293 20.8403C5.67164 20.6718 5.89916 20.575 6.1377 20.5708C6.34641 20.5671 6.54944 20.6346 6.71387 20.7603L6.78223 20.8179L6.78516 20.8198L9.59277 23.6245V10.5298C9.59277 10.2857 9.68963 10.051 9.8623 9.87842C10.0351 9.70578 10.2703 9.60889 10.5146 9.60889ZM21.4648 5.23389C21.7089 5.23389 21.9433 5.33038 22.1162 5.50244L26.4961 9.87842C26.5818 9.96386 26.65 10.0656 26.6963 10.1772L26.7266 10.2622C26.7529 10.3488 26.7666 10.4391 26.7666 10.5298C26.7666 10.6503 26.7426 10.7698 26.6963 10.8813C26.6616 10.9649 26.6149 11.0431 26.5576 11.1128L26.4961 11.1802C26.4108 11.2657 26.3098 11.334 26.1982 11.3804C26.0866 11.4267 25.9666 11.4506 25.8457 11.4507C25.725 11.4507 25.6048 11.4266 25.4932 11.3804C25.3815 11.334 25.2797 11.2658 25.1943 11.1802L22.3867 8.37549V21.4712C22.3866 21.7151 22.289 21.949 22.1162 22.1216C21.9435 22.2942 21.7092 22.3911 21.4648 22.3911C21.2205 22.3911 20.9862 22.2941 20.8135 22.1216C20.6407 21.949 20.544 21.7151 20.5439 21.4712V8.37451L17.7354 11.1802L17.7334 11.1821C17.5588 11.3448 17.3275 11.4334 17.0889 11.4292C16.8502 11.425 16.6229 11.3283 16.4541 11.1597C16.2853 10.991 16.1878 10.7634 16.1836 10.5249C16.1795 10.2866 16.2681 10.0557 16.4307 9.88135L16.4336 9.87842L20.8135 5.50244H20.8145C20.9873 5.33046 21.2209 5.23393 21.4648 5.23389Z" fill="#EC7D3F" stroke="#F4F4F1" stroke-width="0.2"/>
</svg>
