<svg width="28" height="28" viewBox="0 0 28 28" fill="none" xmlns="http://www.w3.org/2000/svg">
<path fill-rule="evenodd" clip-rule="evenodd" d="M6.7474 4.66669H21.3307C21.8341 4.66669 22.2422 5.07475 22.2422 5.57815V9.00523C22.2422 9.50863 21.8341 9.91669 21.3307 9.91669H6.7474C6.244 9.91669 5.83594 9.50863 5.83594 9.00523L5.83594 5.57815C5.83594 5.07475 6.244 4.66669 6.7474 4.66669ZM15.543 8.09377H20.4193V6.4896H7.65885V8.09377H15.543Z" fill="#EC7D3F"/>
<path fill-rule="evenodd" clip-rule="evenodd" d="M6.7474 11.6667H21.3307C21.8341 11.6667 22.2422 12.0747 22.2422 12.5781V16.0052C22.2422 16.5086 21.8341 16.9167 21.3307 16.9167H6.7474C6.244 16.9167 5.83594 16.5086 5.83594 16.0052L5.83594 12.5781C5.83594 12.0747 6.244 11.6667 6.7474 11.6667ZM15.543 15.0938H20.4193V13.4896H7.65885V15.0938H15.543Z" fill="#EC7D3F"/>
<path fill-rule="evenodd" clip-rule="evenodd" d="M6.7474 18.6667H21.3307C21.8341 18.6667 22.2422 19.0747 22.2422 19.5781V23.0052C22.2422 23.5086 21.8341 23.9167 21.3307 23.9167H6.7474C6.244 23.9167 5.83594 23.5086 5.83594 23.0052L5.83594 19.5781C5.83594 19.0747 6.244 18.6667 6.7474 18.6667ZM15.543 22.0938H20.4193V20.4896H7.65885V22.0938H15.543Z" fill="#EC7D3F"/>
</svg>
