<svg width="28" height="28" viewBox="0 0 28 28" fill="none" xmlns="http://www.w3.org/2000/svg">
<path fill-rule="evenodd" clip-rule="evenodd" d="M5.60652 4.66669H11.9664C12.4653 4.66669 12.8698 5.07475 12.8698 5.57815V11.9219C12.8698 12.4253 12.4653 12.8334 11.9664 12.8334H5.60652C5.10757 12.8334 4.70312 12.4253 4.70312 11.9219V5.57815C4.70312 5.07475 5.10757 4.66669 5.60652 4.66669ZM10.1867 11.0104H7.3862H9.32849H11.063V6.4896H6.50991V11.0104H9.53627H10.1867Z" fill="#EC7D3F"/>
<path fill-rule="evenodd" clip-rule="evenodd" d="M5.60652 15.1667H11.9664C12.4653 15.1667 12.8698 15.5747 12.8698 16.0781V22.4219C12.8698 22.9253 12.4653 23.3334 11.9664 23.3334H5.60652C5.10757 23.3334 4.70312 22.9253 4.70312 22.4219V16.0781C4.70312 15.5747 5.10757 15.1667 5.60652 15.1667ZM10.1867 21.5104H7.3862H9.32849H11.063V16.9896H6.50991V21.5104H9.53627H10.1867Z" fill="#EC7D3F"/>
<path fill-rule="evenodd" clip-rule="evenodd" d="M16.0675 4.66669H22.4273C22.9263 4.66669 23.3307 5.07475 23.3307 5.57815V11.9219C23.3307 12.4253 22.9263 12.8334 22.4273 12.8334H16.0675C15.5685 12.8334 15.1641 12.4253 15.1641 11.9219V5.57815C15.1641 5.07475 15.5685 4.66669 16.0675 4.66669ZM20.6477 11.0104H17.8471H19.7894H21.5239V6.4896H16.9708V11.0104H19.9972H20.6477Z" fill="#EC7D3F"/>
<path fill-rule="evenodd" clip-rule="evenodd" d="M16.0675 15.1667H22.4273C22.9263 15.1667 23.3307 15.5747 23.3307 16.0781V22.4219C23.3307 22.9253 22.9263 23.3334 22.4273 23.3334H16.0675C15.5685 23.3334 15.1641 22.9253 15.1641 22.4219V16.0781C15.1641 15.5747 15.5685 15.1667 16.0675 15.1667ZM20.6477 21.5104H17.8471H19.7894H21.5239V16.9896H16.9708V21.5104H19.9972H20.6477Z" fill="#EC7D3F"/>
</svg>
