<svg width="64" height="64" viewBox="0 0 64 64" fill="none" xmlns="http://www.w3.org/2000/svg">
<path d="M51.6795 18.0664H44.545C42.1614 18.0664 40.2221 20.0055 40.2221 22.3893V29.5241C40.2221 30.1569 39.7072 30.6718 39.0745 30.6718L31.9395 30.6723C29.5561 30.6724 27.6169 32.6117 27.6169 34.9952V42.1299C27.6169 42.7628 27.102 43.2777 26.4692 43.2777H19.3346C16.951 43.2777 15.0117 45.2168 15.0117 47.6006V54.7352C15.0117 57.1187 16.9508 59.0581 19.3346 59.0581H47.9158C52.3747 59.0581 56.0023 55.4304 56.0023 50.9715V22.3893C56.0024 20.0057 54.0632 18.0664 51.6795 18.0664ZM52.8272 50.9713C52.8272 53.6795 50.6239 55.8827 47.9158 55.8827H19.3346C18.7018 55.8827 18.187 55.368 18.187 54.7351V47.6005C18.187 46.9677 18.7017 46.4527 19.3346 46.4527H26.4692C28.8528 46.4527 30.7921 44.5135 30.7921 42.1298V34.9951C30.7921 34.3623 31.3069 33.8474 31.9397 33.8473L39.0747 33.8469C41.4582 33.8468 43.3973 31.9074 43.3973 29.524V22.3892C43.3973 21.7564 43.9122 21.2414 44.545 21.2414H51.6795C52.3123 21.2414 52.8273 21.7562 52.8273 22.3892V50.9713H52.8272Z" fill="#EC7D3F"/>
<path d="M41.6891 5.40642C41.0691 4.7864 40.0639 4.7864 39.4439 5.40642L9.72572 35.1245C8.61294 36.2373 8 37.7169 8 39.2907V57.4707C8 58.3475 8.71081 59.0583 9.58757 59.0583C10.4643 59.0583 11.1751 58.3475 11.1751 57.4707V39.2907C11.1751 38.5651 11.4578 37.8828 11.9708 37.3698L41.6891 7.65164C42.3091 7.03162 42.3091 6.02633 41.6891 5.40642Z" fill="#EC7D3F"/>
</svg>
