<svg width="18" height="17" viewBox="0 0 18 17" fill="none" xmlns="http://www.w3.org/2000/svg">
<path d="M8.99925 13.748L4.56681 16.4185C4.43657 16.4826 4.31568 16.5086 4.20416 16.4964C4.09345 16.4834 3.98559 16.4453 3.88058 16.3819C3.77475 16.3169 3.69498 16.2252 3.64125 16.1066C3.58753 15.988 3.58264 15.8585 3.6266 15.7179L4.80614 10.7108L0.904866 7.33614C0.794971 7.24679 0.722521 7.13999 0.687518 7.01573C0.652514 6.89146 0.660248 6.77248 0.710718 6.65877C0.761188 6.54506 0.828346 6.45166 0.912192 6.37856C0.996852 6.3079 1.11082 6.25998 1.25409 6.23481L6.40206 5.78648L8.40948 1.0449C8.46483 0.910892 8.54461 0.81424 8.6488 0.754951C8.753 0.695661 8.86981 0.666016 8.99925 0.666016C9.12868 0.666016 9.2459 0.695661 9.35091 0.754951C9.45592 0.81424 9.53529 0.910892 9.58902 1.0449L11.5964 5.78648L16.7432 6.23481C16.8873 6.25917 17.0016 6.3075 17.0863 6.37978C17.171 6.45125 17.2385 6.54425 17.289 6.65877C17.3387 6.77248 17.346 6.89146 17.311 7.01573C17.276 7.13999 17.2035 7.24679 17.0936 7.33614L13.1924 10.7108L14.3719 15.7179C14.4175 15.8568 14.413 15.986 14.3585 16.1054C14.3039 16.2248 14.2237 16.3165 14.1179 16.3807C14.0137 16.4457 13.9059 16.4843 13.7943 16.4964C13.6836 16.5086 13.5631 16.4826 13.4329 16.4185L8.99925 13.748Z" fill="#EC7D3F"/>
</svg>
