<svg width="24" height="24" viewBox="0 0 24 24" fill="none" xmlns="http://www.w3.org/2000/svg">
<path d="M21.0004 7.14366C21.0004 6.59165 20.7811 6.06224 20.3907 5.6719C20.0004 5.28157 19.471 5.06228 18.919 5.06228H16.1438V4.36849C16.1438 3.81647 15.9245 3.28707 15.5342 2.89673C15.1439 2.5064 14.6144 2.28711 14.0624 2.28711H9.89967C9.34766 2.28711 8.81825 2.5064 8.42791 2.89673C8.03758 3.28707 7.81829 3.81647 7.81829 4.36849V5.06228H5.04312C4.5533 5.07129 4.08236 5.25278 3.71318 5.57482C3.344 5.89686 3.10025 6.3388 3.02482 6.82285C2.94939 7.30691 3.04713 7.80206 3.30082 8.22116C3.55452 8.64025 3.94791 8.95643 4.41177 9.11404L5.61203 19.9164C5.68087 20.4154 5.92833 20.8725 6.30852 21.2029C6.6887 21.5333 7.17582 21.7147 7.67953 21.7133H16.2826C16.7887 21.7181 17.2791 21.5382 17.6622 21.2075C18.0453 20.8768 18.2948 20.4178 18.364 19.9164L19.5642 9.11404C19.9804 8.97834 20.3432 8.71489 20.601 8.36115C20.8588 8.00741 20.9986 7.58139 21.0004 7.14366ZM9.20588 4.36849C9.20588 4.18448 9.27898 4.00801 9.40909 3.8779C9.5392 3.74779 9.71567 3.6747 9.89967 3.6747H14.0624C14.2464 3.6747 14.4229 3.74779 14.553 3.8779C14.6831 4.00801 14.7562 4.18448 14.7562 4.36849V5.06228H9.20588V4.36849ZM16.9694 19.7638C16.9384 19.9241 16.8518 20.0684 16.7249 20.1712C16.598 20.274 16.4389 20.3287 16.2756 20.3257H7.67953C7.51624 20.3287 7.35714 20.274 7.23023 20.1712C7.10332 20.0684 7.01674 19.9241 6.98574 19.7638L5.82017 9.22504H18.1419L16.9694 19.7638ZM18.919 7.83746H5.04312C4.85911 7.83746 4.68265 7.76436 4.55253 7.63425C4.42242 7.50414 4.34933 7.32767 4.34933 7.14366C4.34933 6.95966 4.42242 6.78319 4.55253 6.65308C4.68265 6.52296 4.85911 6.44987 5.04312 6.44987H18.919C19.103 6.44987 19.2795 6.52296 19.4096 6.65308C19.5397 6.78319 19.6128 6.95966 19.6128 7.14366C19.6128 7.32767 19.5397 7.50414 19.4096 7.63425C19.2795 7.76436 19.103 7.83746 18.919 7.83746Z" fill="#181817"/>
<path d="M9.89692 18.245C10.0809 18.245 10.2574 18.1719 10.3875 18.0418C10.5176 17.9117 10.5907 17.7352 10.5907 17.5512V11.3071C10.5907 11.1231 10.5176 10.9466 10.3875 10.8165C10.2574 10.6864 10.0809 10.6133 9.89692 10.6133C9.71291 10.6133 9.53644 10.6864 9.40633 10.8165C9.27622 10.9466 9.20312 11.1231 9.20312 11.3071V17.5512C9.20312 17.7352 9.27622 17.9117 9.40633 18.0418C9.53644 18.1719 9.71291 18.245 9.89692 18.245ZM14.0597 18.245C14.2437 18.245 14.4202 18.1719 14.5503 18.0418C14.6804 17.9117 14.7535 17.7352 14.7535 17.5512V11.3071C14.7535 11.1231 14.6804 10.9466 14.5503 10.8165C14.4202 10.6864 14.2437 10.6133 14.0597 10.6133C13.8757 10.6133 13.6992 10.6864 13.5691 10.8165C13.439 10.9466 13.3659 11.1231 13.3659 11.3071V17.5512C13.3659 17.7352 13.439 17.9117 13.5691 18.0418C13.6992 18.1719 13.8757 18.245 14.0597 18.245Z" fill="#181817"/>
</svg>
