<svg width="12" height="14" viewBox="0 0 12 14" fill="none" xmlns="http://www.w3.org/2000/svg">
<path d="M12.0002 3.76236C12.0002 3.39435 11.8541 3.04141 11.5938 2.78119C11.3336 2.52097 10.9807 2.37477 10.6127 2.37477H8.76254V1.91224C8.76254 1.54423 8.61635 1.1913 8.35613 0.931073C8.0959 0.67085 7.74297 0.524658 7.37496 0.524658H4.59978C4.23177 0.524658 3.87883 0.67085 3.61861 0.931073C3.35839 1.1913 3.2122 1.54423 3.2122 1.91224V2.37477H1.36208C1.03554 2.38078 0.721574 2.50177 0.475455 2.71646C0.229335 2.93116 0.0668324 3.22578 0.0165479 3.54849C-0.0337367 3.87119 0.03142 4.20129 0.20055 4.48069C0.36968 4.76009 0.631943 4.97087 0.941179 5.07594L1.74135 12.2775C1.78725 12.6102 1.95222 12.9149 2.20568 13.1352C2.45914 13.3555 2.78388 13.4764 3.11969 13.4755H8.85505C9.19244 13.4786 9.51943 13.3587 9.77483 13.1383C10.0302 12.9178 10.1965 12.6118 10.2426 12.2775L11.0428 5.07594C11.3203 4.98548 11.5621 4.80985 11.734 4.57402C11.9059 4.3382 11.9991 4.05418 12.0002 3.76236ZM4.13725 1.91224C4.13725 1.78957 4.18598 1.67193 4.27272 1.58519C4.35947 1.49845 4.47711 1.44972 4.59978 1.44972H7.37496C7.49763 1.44972 7.61527 1.49845 7.70201 1.58519C7.78875 1.67193 7.83748 1.78957 7.83748 1.91224V2.37477H4.13725V1.91224ZM9.31295 12.1758C9.29228 12.2827 9.23456 12.3788 9.14996 12.4474C9.06535 12.5159 8.95928 12.5524 8.85042 12.5504H3.11969C3.01083 12.5524 2.90476 12.5159 2.82015 12.4474C2.73555 12.3788 2.67783 12.2827 2.65716 12.1758L1.88011 5.14995H10.0946L9.31295 12.1758ZM10.6127 4.22489H1.36208C1.23941 4.22489 1.12176 4.17616 1.03502 4.08942C0.948282 4.00268 0.899551 3.88503 0.899551 3.76236C0.899551 3.63969 0.948282 3.52204 1.03502 3.4353C1.12176 3.34856 1.23941 3.29983 1.36208 3.29983H10.6127C10.7353 3.29983 10.853 3.34856 10.9397 3.4353C11.0265 3.52204 11.0752 3.63969 11.0752 3.76236C11.0752 3.88503 11.0265 4.00268 10.9397 4.08942C10.853 4.17616 10.7353 4.22489 10.6127 4.22489Z" fill="#EC7D3F"/>
<path d="M4.59827 11.1628C4.72094 11.1628 4.83859 11.114 4.92533 11.0273C5.01207 10.9406 5.0608 10.8229 5.0608 10.7002V6.53748C5.0608 6.41481 5.01207 6.29716 4.92533 6.21042C4.83859 6.12368 4.72094 6.07495 4.59827 6.07495C4.4756 6.07495 4.35795 6.12368 4.27121 6.21042C4.18447 6.29716 4.13574 6.41481 4.13574 6.53748V10.7002C4.13574 10.8229 4.18447 10.9406 4.27121 11.0273C4.35795 11.114 4.4756 11.1628 4.59827 11.1628ZM7.37344 11.1628C7.49611 11.1628 7.61376 11.114 7.7005 11.0273C7.78724 10.9406 7.83597 10.8229 7.83597 10.7002V6.53748C7.83597 6.41481 7.78724 6.29716 7.7005 6.21042C7.61376 6.12368 7.49611 6.07495 7.37344 6.07495C7.25077 6.07495 7.13313 6.12368 7.04639 6.21042C6.95965 6.29716 6.91092 6.41481 6.91092 6.53748V10.7002C6.91092 10.8229 6.95965 10.9406 7.04639 11.0273C7.13313 11.114 7.25077 11.1628 7.37344 11.1628Z" fill="#EC7D3F"/>
</svg>
