<svg width="25" height="24" viewBox="0 0 25 24" fill="none" xmlns="http://www.w3.org/2000/svg">
<path d="M14.6346 5.30275C15.5485 5.30275 16.2962 4.56422 16.2962 3.65138C16.2962 2.73853 15.5485 2 14.6346 2C13.7162 2 12.9731 2.73853 12.9731 3.65138C12.9731 4.56422 13.7162 5.30275 14.6346 5.30275ZM14.2979 10.2399C14.5754 10.7056 15.0774 10.9908 15.6195 10.9908H18.4243C18.8803 10.9908 19.25 10.6212 19.25 10.1651C19.25 9.70912 18.8803 9.33945 18.4243 9.33945H16.3378C16.0684 9.33945 15.8187 9.19858 15.6794 8.96806L14.0577 6.2844C13.7854 5.82569 13.2823 5.52294 12.71 5.52294C11.2993 5.52294 9.668 6.38897 8.33344 6.80217C7.68922 7.00163 7.25 7.5974 7.25 8.2718V11.0775C7.25 11.5363 7.62195 11.9083 8.08077 11.9083C8.53959 11.9083 8.91154 11.5363 8.91154 11.0775V9.11315C8.91154 8.77587 9.13127 8.47792 9.4535 8.37827L10.8546 7.94495L7.56616 20.7672C7.40596 21.3919 7.87778 22 8.52268 22C8.95523 22 9.33743 21.7185 9.46572 21.3054L11.5608 14.5596C12.0348 15.3183 13.25 16.55 13.25 17.4837V21C13.25 21.5523 13.6977 22 14.25 22C14.8023 22 15.25 21.5523 15.25 21V16.5812C15.25 16.3376 15.1921 16.0974 15.0811 15.8805L13.0746 11.9587L13.7531 9.32569L14.2979 10.2399Z" fill="#181817"/>
</svg>
