<svg width="64" height="64" viewBox="0 0 64 64" fill="none" xmlns="http://www.w3.org/2000/svg">
<path d="M24 56H13.3333C11.9188 56 10.5623 55.4381 9.5621 54.4379C8.5619 53.4377 8 52.0812 8 50.6667V13.3333C8 11.9188 8.5619 10.5623 9.5621 9.5621C10.5623 8.5619 11.9188 8 13.3333 8H50.6667C52.0812 8 53.4377 8.5619 54.4379 9.5621C55.4381 10.5623 56 11.9188 56 13.3333V50.6667C56 52.0812 55.4381 53.4377 54.4379 54.4379C53.4377 55.4381 52.0812 56 50.6667 56H37.3333M24 8V26.6667M56 26.6667H37.3333M8 40H32" stroke="#EC7D3F" stroke-width="3" stroke-linecap="round" stroke-linejoin="round"/>
</svg>
