<svg width="33" height="32" viewBox="0 0 33 32" fill="none" xmlns="http://www.w3.org/2000/svg">
<path fill-rule="evenodd" clip-rule="evenodd" d="M4.908 22.7765L2.5 30L10.34 27.9372C12.2522 28.9442 14.4294 29.5172 16.7414 29.5172C24.34 29.5172 30.5 23.3572 30.5 15.7586C30.5 8.16 24.34 2 16.7414 2C9.14276 2 2.98276 8.16 2.98276 15.7586C2.98276 18.323 3.68614 20.7214 4.908 22.7765ZM22.5415 17.764C22.5415 17.764 24.8843 19.137 25.5197 20.3376C25.79 20.8479 25.6959 21.475 25.2875 21.8844L24.4388 22.733C21.7464 25.4254 18.707 24.0997 16.0146 21.4074L11.0934 16.4862C8.40104 13.7938 7.07539 10.7544 9.76773 8.06202L10.6164 7.21333C11.0248 6.80491 11.6519 6.71029 12.1627 6.98064C13.3633 7.61595 14.7363 9.95877 14.7363 9.95877C15.0385 10.4888 15.0723 11.128 14.5335 11.4307C14.5335 11.4307 13.6206 12.192 13.4893 12.3856C12.8902 13.27 12.9134 14.0893 13.7404 14.9162L17.5841 18.7599C18.411 19.5869 19.2303 19.6101 20.1147 19.011C20.3083 18.8797 21.0696 17.9668 21.0696 17.9668C21.3718 17.428 22.0115 17.4618 22.5415 17.764Z" fill="white"/>
</svg>
