<svg width="56" height="56" viewBox="0 0 56 56" fill="none" xmlns="http://www.w3.org/2000/svg">
<rect width="56" height="56" rx="28" fill="#EC7D3F"/>
<path d="M38.5 28.0002C38.5 25.8062 37.8128 23.6674 36.5349 21.884C35.257 20.1007 33.4526 18.7624 31.3751 18.0572C29.2976 17.352 27.0513 17.3153 24.9519 17.9522C22.8524 18.5891 21.0052 19.8676 19.6696 21.6082C18.3341 23.3488 17.5773 25.4641 17.5056 27.6568C17.4339 29.8496 18.0509 32.0098 19.2699 33.8339C20.4888 35.6581 22.2486 37.0545 24.302 37.8272C26.3553 38.5999 28.5992 38.71 30.7183 38.142" stroke="#F4F4F1" stroke-width="3" stroke-linecap="round"/>
<path d="M27.9987 32.6668C30.576 32.6668 32.6654 30.5775 32.6654 28.0002C32.6654 25.4228 30.576 23.3335 27.9987 23.3335C25.4214 23.3335 23.332 25.4228 23.332 28.0002C23.332 30.5775 25.4214 32.6668 27.9987 32.6668Z" stroke="#F4F4F1" stroke-width="3"/>
<path d="M32.668 24.5V29.75C32.668 30.5235 32.9753 31.2654 33.5222 31.8124C34.0692 32.3594 34.8111 32.6667 35.5846 32.6667C36.3582 32.6667 37.1 32.3594 37.647 31.8124C38.194 31.2654 38.5013 30.5235 38.5013 29.75V28" stroke="#F4F4F1" stroke-width="3" stroke-linecap="round"/>
</svg>
