<svg width="56" height="57" viewBox="0 0 56 57" fill="none" xmlns="http://www.w3.org/2000/svg">
<rect y="0.5" width="56" height="56" rx="28" fill="#EC7D3F"/>
<path d="M27.1182 39.5837L26.8425 39.3903C25.4628 38.3901 24.1806 37.2526 23.0144 35.9941C20.9654 33.7701 18.668 30.4363 18.668 26.5015C18.668 21.6608 22.4602 16.8335 28.0013 16.8335C33.5424 16.8335 37.3346 21.6608 37.3346 26.503C37.3346 30.4378 35.0372 33.7715 32.9882 35.9926C31.822 37.2511 30.5399 38.3886 29.1601 39.3888C29.0433 39.4731 28.9514 39.5376 28.8844 39.5822C28.5929 39.783 28.2957 39.9734 28.0013 40.1668C27.7069 39.9734 27.4097 39.783 27.1182 39.5837ZM28.0013 29.4783C28.763 29.4783 29.4934 29.1648 30.032 28.6068C30.5705 28.0489 30.8731 27.2921 30.8731 26.503C30.8731 25.7139 30.5705 24.9572 30.032 24.3992C29.4934 23.8413 28.763 23.5278 28.0013 23.5278C27.2397 23.5278 26.5092 23.8413 25.9706 24.3992C25.4321 24.9572 25.1295 25.7139 25.1295 26.503C25.1295 27.2921 25.4321 28.0489 25.9706 28.6068C26.5092 29.1648 27.2397 29.4783 28.0013 29.4783Z" fill="#F4F4F1"/>
</svg>
