<svg width="56" height="56" viewBox="0 0 56 56" fill="none" xmlns="http://www.w3.org/2000/svg">
<rect width="56" height="56" rx="28" fill="#EC7D3F"/>
<path d="M23.031 24.1249C23.9288 25.9949 25.1526 27.7474 26.7026 29.2974C28.2526 30.8474 30.0051 32.0712 31.8751 32.969C32.0359 33.0463 32.1163 33.0849 32.2181 33.1145C32.5797 33.22 33.0238 33.1442 33.3301 32.9249C33.4163 32.8632 33.49 32.7895 33.6375 32.642C34.0884 32.1911 34.3139 31.9656 34.5407 31.8182C35.3958 31.2622 36.4981 31.2622 37.3532 31.8182C37.5799 31.9656 37.8054 32.1911 38.2564 32.642L38.5078 32.8934C39.1933 33.5789 39.5361 33.9217 39.7223 34.2898C40.0926 35.022 40.0926 35.8866 39.7223 36.6187C39.5361 36.9868 39.1933 37.3296 38.5078 38.0151L38.3044 38.2184C37.6213 38.9016 37.2797 39.2432 36.8152 39.5041C36.2999 39.7936 35.4995 40.0017 34.9084 40C34.3757 39.9984 34.0117 39.8951 33.2836 39.6884C29.3707 38.5778 25.6784 36.4823 22.598 33.402C19.5177 30.3216 17.4222 26.6293 16.3116 22.7164C16.1049 21.9883 16.0016 21.6243 16 21.0916C15.9983 20.5005 16.2064 19.7001 16.4959 19.1848C16.7568 18.7203 17.0984 18.3787 17.7816 17.6956L17.9849 17.4922C18.6704 16.8067 19.0132 16.4639 19.3813 16.2777C20.1134 15.9074 20.978 15.9074 21.7102 16.2777C22.0783 16.4639 22.4211 16.8067 23.1066 17.4922L23.358 17.7436C23.8089 18.1946 24.0344 18.4201 24.1818 18.6468C24.7378 19.5019 24.7378 20.6042 24.1818 21.4593C24.0344 21.6861 23.8089 21.9116 23.358 22.3625C23.2105 22.51 23.1368 22.5837 23.0751 22.6699C22.8558 22.9762 22.78 23.4203 22.8855 23.7819C22.9151 23.8837 22.9537 23.9641 23.031 24.1249Z" fill="#F4F4F1" stroke="white" stroke-width="1.5" stroke-linecap="round" stroke-linejoin="round"/>
</svg>
