<svg width="64" height="64" viewBox="0 0 64 64" fill="none" xmlns="http://www.w3.org/2000/svg">
<path d="M24.9513 58.4087C23.4006 58.5716 21.8427 58.6572 20.2835 58.6652C18.6201 58.6652 18.229 58.5446 16.8843 58.4087C15.1446 58.2309 13.8368 56.8088 13.6971 55.0653L12.7485 43.2245C11.7022 43.1762 9.49278 43.1229 8.67503 43.0721C6.64081 42.9438 5.12213 41.1864 5.35578 39.1611C5.8966 34.5494 6.90188 30.0042 8.35631 25.5946C9.00517 23.6391 10.6927 22.2855 12.7473 22.1153C14.4856 21.968 16.9617 21.8411 20.2835 21.8411C23.6053 21.8411 26.0814 21.968 27.8185 22.1141C29.8705 22.2842 31.5593 23.6378 32.2082 25.5933C32.9036 27.6987 33.4964 29.8366 33.9846 31.9994M38.3477 38.3484C38.6118 37.0266 39.1413 35.5727 39.6048 34.4476C40.1165 33.2032 41.1882 32.2826 42.5253 32.1239C43.2461 32.0411 43.9711 31.9995 44.6967 31.9994C45.5309 31.9994 46.2598 32.0515 46.868 32.1239C48.2051 32.2826 49.2768 33.2032 49.7885 34.4476C50.252 35.5727 50.7815 37.0253 51.0456 38.3484" stroke="#EC7D3F" stroke-width="3.5" stroke-linecap="round" stroke-linejoin="round"/>
<path d="M28.5386 13.5883C28.5386 15.7773 27.669 17.8767 26.1212 19.4245C24.5733 20.9724 22.4739 21.842 20.2849 21.842C18.0959 21.842 15.9966 20.9724 14.4487 19.4245C12.9008 17.8767 12.0312 15.7773 12.0312 13.5883C12.0312 11.3993 12.9008 9.29991 14.4487 7.75204C15.9966 6.20418 18.0959 5.33459 20.2849 5.33459C22.4739 5.33459 24.5733 6.20418 26.1212 7.75204C27.669 9.29991 28.5386 11.3993 28.5386 13.5883ZM31.0109 42.3492C31.1874 40.5016 32.5131 39.0655 34.3568 38.8433C36.4215 38.5931 39.7154 38.3493 44.6993 38.3493C49.6833 38.3493 52.9784 38.5931 55.0418 38.8433C56.8856 39.0655 58.2113 40.5016 58.3878 42.3492C58.5338 43.8945 58.6671 45.9872 58.6671 48.5077C58.6671 51.0283 58.5338 53.1209 58.3878 54.6662C58.2113 56.5138 56.8856 57.9499 55.0418 58.1721C52.9772 58.4223 49.6833 58.6661 44.6993 58.6661C39.7154 58.6661 36.4203 58.421 34.3568 58.1721C32.5131 57.9499 31.1874 56.5138 31.0109 54.6662C30.822 52.6189 30.7287 50.5638 30.7316 48.5077C30.7316 45.9872 30.8649 43.8945 31.0109 42.3492Z" stroke="#EC7D3F" stroke-width="3.5" stroke-linecap="round" stroke-linejoin="round"/>
</svg>
