<svg width="64" height="64" viewBox="0 0 64 64" fill="none" xmlns="http://www.w3.org/2000/svg">
<path d="M50.2497 13.7521C45.3755 8.87798 38.8949 6.1936 32.0018 6.1936C25.1086 6.1936 18.6281 8.87798 13.7538 13.7521C8.87969 18.6264 6.19531 25.1069 6.19531 32.0001C6.19531 38.8932 8.87969 45.3737 13.7538 50.248C18.6281 55.1221 25.1086 57.8065 32.0018 57.8065C36.7208 57.8065 41.3382 56.5204 45.3548 54.0875C46.3071 53.5104 46.6115 52.2707 46.0346 51.3184C45.4576 50.3659 44.2179 50.0616 43.2656 50.6386C39.8792 52.69 35.9841 53.7743 32.0018 53.7743C19.9954 53.7743 10.2276 44.0064 10.2276 32.0001C10.2276 19.9937 19.9954 10.2259 32.0018 10.2259C44.0081 10.2259 53.776 19.9937 53.776 32.0001C53.776 36.2933 52.4992 40.4722 50.0838 44.0851C49.465 45.0107 49.7137 46.2629 50.6393 46.8817C51.565 47.5007 52.8171 47.2519 53.4358 46.3263C56.2963 42.0478 57.8082 37.0938 57.8082 32.0001C57.8082 25.1069 55.1238 18.6264 50.2497 13.7521Z" fill="#EC7D3F"/>
<path d="M39.5629 35.73C38.4494 35.73 37.5467 36.6326 37.5467 37.7461C37.5467 40.8033 35.0596 43.2905 32.0024 43.2905C28.9452 43.2905 26.458 40.8033 26.458 37.7461C26.458 36.6326 25.5554 35.73 24.4419 35.73C23.3284 35.73 22.4258 36.6326 22.4258 37.7461C22.4258 43.0267 26.7218 47.3227 32.0024 47.3227C37.2829 47.3227 41.579 43.0267 41.579 37.7461C41.579 36.6326 40.6764 35.73 39.5629 35.73Z" fill="#EC7D3F"/>
<path d="M40.9739 21.4153C38.1947 21.4153 35.9336 23.6764 35.9336 26.4556C35.9336 27.5691 36.8362 28.4717 37.9497 28.4717C39.0632 28.4717 39.9659 27.5691 39.9659 26.4556C39.9659 25.8998 40.4181 25.4475 40.9739 25.4475C41.5298 25.4475 41.982 25.8998 41.982 26.4556C41.982 27.5691 42.8846 28.4717 43.9981 28.4717C45.1116 28.4717 46.0142 27.5691 46.0142 26.4556C46.0142 23.6764 43.7532 21.4153 40.9739 21.4153Z" fill="#EC7D3F"/>
<path d="M23.1302 21.4155C20.3509 21.4155 18.0898 23.6766 18.0898 26.4559C18.0898 27.5694 18.9925 28.472 20.106 28.472C21.2195 28.472 22.1221 27.5694 22.1221 26.4559C22.1221 25.9 22.5743 25.4478 23.1302 25.4478C23.686 25.4478 24.1382 25.9 24.1382 26.4559C24.1382 27.5694 25.0409 28.472 26.1544 28.472C27.2679 28.472 28.1705 27.5694 28.1705 26.4559C28.1705 23.6766 25.9094 21.4155 23.1302 21.4155Z" fill="#EC7D3F"/>
</svg>
