<svg width="64" height="64" viewBox="0 0 64 64" fill="none" xmlns="http://www.w3.org/2000/svg">
<path d="M35.8067 6.94357C35.3117 6.43405 34.7194 6.029 34.0654 5.75245C33.4113 5.47587 32.7087 5.33337 31.9985 5.33337C31.2887 5.33337 30.5859 5.47587 29.9318 5.75245C29.2778 6.029 28.6858 6.43405 28.1907 6.94357L5.8161 30.7495C5.49266 31.0932 5.31883 31.5514 5.33281 32.0233C5.34683 32.4951 5.54754 32.9422 5.89078 33.2662C6.23402 33.59 6.69166 33.7638 7.16309 33.75C7.63452 33.7359 8.08103 33.5351 8.40448 33.1913L8.88803 32.6786V53.3274C8.88992 54.7429 9.4524 56.0998 10.4522 57.1009C11.452 58.1017 12.8074 58.6648 14.2213 58.6667H49.7761C51.1899 58.6648 52.5455 58.1017 53.545 57.1009C54.5449 56.0998 55.1073 54.7429 55.1093 53.3274V32.6786L55.5929 33.1913C55.9161 33.5351 56.3629 33.7359 56.8343 33.75C57.3056 33.7638 57.7634 33.59 58.1065 33.2662C58.4497 32.9422 58.6506 32.4951 58.6646 32.0233C58.6785 31.5514 58.5048 31.0932 58.1813 30.7495L35.8067 6.94357ZM51.554 53.3274C51.553 53.7993 51.3653 54.2513 51.0321 54.5848C50.6989 54.9183 50.2472 55.1062 49.7761 55.1072H14.2213C13.7501 55.1062 13.2984 54.9183 12.9652 54.5848C12.6321 54.2513 12.4444 53.7993 12.4435 53.3274V28.895L30.7791 9.38185C30.9349 9.21388 31.1236 9.07988 31.3334 8.98824C31.5433 8.89661 31.7697 8.84933 31.9985 8.84933C32.2278 8.84933 32.454 8.89661 32.6639 8.98824C32.8738 9.07988 33.0625 9.21388 33.2183 9.38185L51.554 28.895V53.3274Z" fill="#EC7D3F"/>
<path d="M39.4465 42H23.4466C23.093 42 22.7538 42.1755 22.5038 42.4883C22.2537 42.8008 22.1133 43.2245 22.1133 43.6667C22.1133 44.1088 22.2537 44.5325 22.5038 44.8451C22.7538 45.1579 23.093 45.3333 23.4466 45.3333H39.4465C39.8003 45.3333 40.1393 45.1579 40.3894 44.8451C40.6395 44.5325 40.7798 44.1088 40.7798 43.6667C40.7798 43.2245 40.6395 42.8008 40.3894 42.4883C40.1393 42.1755 39.8003 42 39.4465 42Z" fill="#EC7D3F"/>
</svg>
