<svg width="54" height="54" viewBox="0 0 54 54" fill="none" xmlns="http://www.w3.org/2000/svg">
<path d="M30.8067 1.94357C30.3117 1.43405 29.7194 1.029 29.0654 0.752448C28.4113 0.475868 27.7087 0.333374 26.9985 0.333374C26.2887 0.333374 25.5859 0.475868 24.9318 0.752448C24.2778 1.029 23.6858 1.43405 23.1907 1.94357L0.816102 25.7495C0.492659 26.0932 0.318829 26.5514 0.332814 27.0233C0.346832 27.4951 0.547535 27.9422 0.890776 28.2662C1.23402 28.59 1.69166 28.7638 2.16309 28.75C2.63452 28.7359 3.08103 28.5351 3.40448 28.1913L3.88803 27.6786V48.3274C3.88992 49.7429 4.4524 51.0998 5.45216 52.1009C6.45196 53.1017 7.80738 53.6648 9.22127 53.6667H44.7761C46.1899 53.6648 47.5455 53.1017 48.545 52.1009C49.5449 51.0998 50.1073 49.7429 50.1093 48.3274V27.6786L50.5929 28.1913C50.9161 28.5351 51.3629 28.7359 51.8343 28.75C52.3056 28.7638 52.7634 28.59 53.1065 28.2662C53.4497 27.9422 53.6506 27.4951 53.6646 27.0233C53.6785 26.5514 53.5048 26.0932 53.1813 25.7495L30.8067 1.94357ZM46.554 48.3274C46.553 48.7993 46.3653 49.2513 46.0321 49.5848C45.6989 49.9183 45.2472 50.1062 44.7761 50.1072H9.22127C8.75008 50.1062 8.29844 49.9183 7.96523 49.5848C7.63206 49.2513 7.44444 48.7993 7.44351 48.3274V23.895L25.7791 4.38185C25.9349 4.21388 26.1236 4.07988 26.3334 3.98824C26.5433 3.89661 26.7697 3.84933 26.9985 3.84933C27.2278 3.84933 27.454 3.89661 27.6639 3.98824C27.8738 4.07988 28.0625 4.21388 28.2183 4.38185L46.554 23.895V48.3274Z" fill="#EC7D3F"/>
<path d="M34.4465 37H18.4466C18.093 37 17.7538 37.1755 17.5038 37.4883C17.2537 37.8008 17.1133 38.2245 17.1133 38.6667C17.1133 39.1088 17.2537 39.5325 17.5038 39.8451C17.7538 40.1579 18.093 40.3333 18.4466 40.3333H34.4465C34.8003 40.3333 35.1393 40.1579 35.3894 39.8451C35.6395 39.5325 35.7798 39.1088 35.7798 38.6667C35.7798 38.2245 35.6395 37.8008 35.3894 37.4883C35.1393 37.1755 34.8003 37 34.4465 37Z" fill="#EC7D3F"/>
</svg>
