<svg width="64" height="64" viewBox="0 0 64 64" fill="none" xmlns="http://www.w3.org/2000/svg">
<path d="M29.9828 57.3339L29.3527 56.8919C26.1989 54.6058 23.2683 52.0058 20.6027 49.1291C15.9193 44.0456 10.668 36.4256 10.668 27.4319C10.668 16.3674 19.3359 5.3335 32.0013 5.3335C44.6667 5.3335 53.3346 16.3674 53.3346 27.4353C53.3346 36.429 48.0834 44.049 43.3999 49.1257C40.7343 52.0024 37.8037 54.6024 34.6499 56.8885C34.383 57.0812 34.1729 57.2285 34.0198 57.3305C33.3535 57.7896 32.6741 58.2248 32.0013 58.6668C31.3285 58.2248 30.6491 57.7896 29.9828 57.3339ZM32.0013 34.2358C33.7422 34.2358 35.4118 33.5194 36.6428 32.244C37.8738 30.9687 38.5654 29.2389 38.5654 27.4353C38.5654 25.6317 37.8738 23.9019 36.6428 22.6266C35.4118 21.3512 33.7422 20.6347 32.0013 20.6347C30.2604 20.6347 28.5908 21.3512 27.3598 22.6266C26.1288 23.9019 25.4372 25.6317 25.4372 27.4353C25.4372 29.2389 26.1288 30.9687 27.3598 32.244C28.5908 33.5194 30.2604 34.2358 32.0013 34.2358Z" fill="#EC7D3F"/>
</svg>
