<svg width="64" height="64" viewBox="0 0 64 64" fill="none" xmlns="http://www.w3.org/2000/svg">
<path d="M31.9987 5.33337C26.7245 5.33337 21.5688 6.89735 17.1835 9.82752C12.7982 12.7577 9.38026 16.9225 7.36192 21.7951C5.34359 26.6678 4.8155 32.0296 5.84444 37.2024C6.87337 42.3753 9.41313 47.1268 13.1425 50.8562C16.8719 54.5856 21.6235 57.1254 26.7963 58.1543C31.9691 59.1832 37.3309 58.6552 42.2036 56.6368C47.0763 54.6185 51.2411 51.2005 54.1712 46.8152C57.1014 42.4299 58.6654 37.2742 58.6654 32C58.6578 24.9299 55.8459 18.1515 50.8465 13.1522C45.8472 8.15288 39.0688 5.34094 31.9987 5.33337ZM31.9987 54.8572C27.478 54.8572 23.0588 53.5166 19.3 51.0051C15.5411 48.4935 12.6115 44.9237 10.8815 40.7471C9.15146 36.5705 8.69881 31.9747 9.58076 27.5408C10.4627 23.107 12.6396 19.0342 15.8363 15.8376C19.0329 12.641 23.1056 10.464 27.5395 9.58209C31.9733 8.70014 36.5692 9.15279 40.7458 10.8828C44.9223 12.6128 48.4921 15.5425 51.0037 19.3013C53.5153 23.0601 54.8558 27.4793 54.8558 32C54.8493 38.0601 52.439 43.8701 48.1539 48.1552C43.8688 52.4404 38.0588 54.8506 31.9987 54.8572Z" fill="#EC7D3F"/>
<path d="M35 16H28C27.4696 16 26.9609 16.2107 26.5858 16.5858C26.2107 16.9609 26 17.4696 26 18V30H24C23.4696 30 22.9609 30.2107 22.5858 30.5858C22.2107 30.9609 22 31.4696 22 32C22 32.5304 22.2107 33.0391 22.5858 33.4142C22.9609 33.7893 23.4696 34 24 34H26V38H24C23.4696 38 22.9609 38.2107 22.5858 38.5858C22.2107 38.9609 22 39.4696 22 40C22 40.5304 22.2107 41.0391 22.5858 41.4142C22.9609 41.7893 23.4696 42 24 42H26V48C26 48.5304 26.2107 49.0391 26.5858 49.4142C26.9609 49.7893 27.4696 50 28 50C28.5304 50 29.0391 49.7893 29.4142 49.4142C29.7893 49.0391 30 48.5304 30 48V42H36C36.5304 42 37.0391 41.7893 37.4142 41.4142C37.7893 41.0391 38 40.5304 38 40C38 39.4696 37.7893 38.9609 37.4142 38.5858C37.0391 38.2107 36.5304 38 36 38H30V34H35C37.387 34 39.6761 33.0518 41.364 31.364C43.0518 29.6761 44 27.3869 44 25C44 22.6131 43.0518 20.3239 41.364 18.636C39.6761 16.9482 37.387 16 35 16ZM35 30H30V20H35C36.3261 20 37.5979 20.5268 38.5355 21.4645C39.4732 22.4021 40 23.6739 40 25C40 26.3261 39.4732 27.5979 38.5355 28.5355C37.5979 29.4732 36.3261 30 35 30Z" fill="#EC7D3F"/>
</svg>
