<svg width="40" height="40" viewBox="0 0 40 40" fill="none" xmlns="http://www.w3.org/2000/svg">
<rect width="40" height="40" rx="20" fill="#F4F4F1"/>
<path d="M21.5487 14.4713L21.0647 13.8983L21.0592 13.903L21.0538 13.9077L21.5487 14.4713ZM18.4546 14.4713L18.951 13.909L18.9449 13.9036L18.9386 13.8983L18.4546 14.4713ZM19.9974 15.8333L19.501 16.3956C19.784 16.6454 20.2086 16.646 20.4922 16.3969L19.9974 15.8333ZM19.9974 27.0833L19.4943 27.6396C19.7798 27.8978 20.2145 27.8979 20.5001 27.6399L19.9974 27.0833ZM24.4418 13.3333V14.0833C26.1586 14.0833 27.5807 15.5137 27.5807 17.3161H28.3307H29.0807C29.0807 14.7192 27.0206 12.5833 24.4418 12.5833V13.3333ZM11.6641 17.3161H12.4141C12.4141 15.5137 13.8362 14.0833 15.553 14.0833V13.3333V12.5833C12.9742 12.5833 10.9141 14.7192 10.9141 17.3161H11.6641ZM21.5487 14.4713L22.0327 15.0442C22.3685 14.7605 23.196 14.0833 24.4418 14.0833V13.3333V12.5833C22.6321 12.5833 21.4499 13.5729 21.0647 13.8983L21.5487 14.4713ZM15.553 13.3333V14.0833C16.9393 14.0833 17.6194 14.7475 17.9706 15.0442L18.4546 14.4713L18.9386 13.8983C18.5687 13.5858 17.5228 12.5833 15.553 12.5833V13.3333ZM18.4546 14.4713L17.9582 15.0335L19.501 16.3956L19.9974 15.8333L20.4938 15.2711L18.951 13.909L18.4546 14.4713ZM19.9974 15.8333L20.4922 16.3969L22.0435 15.0348L21.5487 14.4713L21.0538 13.9077L19.5026 15.2697L19.9974 15.8333ZM28.3307 17.3161H27.5807C27.5807 17.7897 27.5209 18.183 27.3704 18.574C27.2179 18.97 26.9577 19.4021 26.5087 19.9316L27.0807 20.4167L27.6528 20.9017C28.176 20.2846 28.5407 19.7091 28.7703 19.1128C29.0017 18.5114 29.0807 17.9277 29.0807 17.3161H28.3307ZM27.0807 20.4167L26.5087 19.9316C26.0604 20.4603 24.3359 22.0863 22.6656 23.629C21.8427 24.3891 21.0498 25.1136 20.4625 25.6483C20.1689 25.9156 19.9268 26.1353 19.7582 26.2882C19.6739 26.3646 19.6079 26.4243 19.5631 26.4649C19.5407 26.4852 19.5235 26.5007 19.512 26.5111C19.5062 26.5163 19.5019 26.5202 19.499 26.5229C19.4975 26.5242 19.4964 26.5252 19.4957 26.5258C19.4954 26.5261 19.4951 26.5264 19.4949 26.5265C19.4948 26.5266 19.4948 26.5267 19.4947 26.5267C19.4947 26.5268 19.4947 26.5268 19.9974 27.0833C20.5001 27.6399 20.5002 27.6399 20.5002 27.6398C20.5003 27.6398 20.5003 27.6397 20.5004 27.6396C20.5006 27.6394 20.5009 27.6392 20.5013 27.6388C20.5021 27.6382 20.5032 27.6371 20.5047 27.6358C20.5076 27.6331 20.5121 27.6291 20.5179 27.6238C20.5296 27.6133 20.5469 27.5976 20.5694 27.5772C20.6146 27.5364 20.6809 27.4764 20.7656 27.3996C20.9349 27.2461 21.1778 27.0256 21.4724 26.7575C22.0613 26.2213 22.857 25.4942 23.6834 24.7309C25.3117 23.227 27.1288 21.5196 27.6528 20.9017L27.0807 20.4167ZM12.9141 20.4167L13.488 19.9339C12.666 18.9567 12.4141 18.2257 12.4141 17.3161H11.6641H10.9141C10.9141 18.6354 11.3299 19.6985 12.3401 20.8995L12.9141 20.4167ZM19.9974 27.0833C20.5005 26.5271 20.5005 26.5271 20.5004 26.527C20.5004 26.527 20.5003 26.5269 20.5002 26.5268C20.5 26.5267 20.4998 26.5264 20.4994 26.5261C20.4987 26.5254 20.4976 26.5245 20.4961 26.5231C20.4932 26.5205 20.4888 26.5165 20.483 26.5112C20.4713 26.5007 20.454 26.4851 20.4314 26.4646C20.3862 26.4236 20.3196 26.3633 20.2346 26.2861C20.0645 26.1318 19.8204 25.91 19.5246 25.6405C18.9329 25.1013 18.1348 24.3713 17.3083 23.6076C15.6292 22.056 13.9071 20.4321 13.488 19.9339L12.9141 20.4167L12.3401 20.8995C12.8371 21.4903 14.6567 23.1997 16.2903 24.7092C17.1201 25.4761 17.921 26.2085 18.5143 26.7492C18.811 27.0195 19.0559 27.242 19.2266 27.397C19.312 27.4744 19.3789 27.535 19.4244 27.5763C19.4472 27.5969 19.4646 27.6127 19.4764 27.6234C19.4823 27.6287 19.4867 27.6327 19.4897 27.6354C19.4913 27.6368 19.4924 27.6378 19.4932 27.6385C19.4935 27.6389 19.4938 27.6391 19.494 27.6393C19.4941 27.6394 19.4942 27.6395 19.4942 27.6395C19.4943 27.6396 19.4943 27.6396 19.9974 27.0833Z" fill="#181817"/>
</svg>
