<svg width="20" height="20" viewBox="0 0 20 20" fill="none" xmlns="http://www.w3.org/2000/svg">
<mask id="path-1-inside-1_2508_14167" fill="white">
<path d="M10.8575 1.66675C11.795 1.66925 12.2708 1.67425 12.6816 1.68591L12.8433 1.69175C13.03 1.69841 13.2141 1.70675 13.4366 1.71675C14.3233 1.75841 14.9283 1.89841 15.4591 2.10425C16.0091 2.31591 16.4725 2.60258 16.9358 3.06508C17.3597 3.48153 17.6876 3.98547 17.8966 4.54175C18.1025 5.07258 18.2425 5.67758 18.2841 6.56508C18.2941 6.78675 18.3025 6.97091 18.3091 7.15841L18.3141 7.32008C18.3266 7.73008 18.3316 8.20591 18.3333 9.14341L18.3341 9.76508V10.8567C18.3362 11.4646 18.3298 12.0724 18.315 12.6801L18.31 12.8417C18.3033 13.0292 18.295 13.2134 18.285 13.4351C18.2433 14.3226 18.1016 14.9267 17.8966 15.4584C17.6876 16.0147 17.3597 16.5186 16.9358 16.9351C16.5194 17.359 16.0154 17.6869 15.4591 17.8959C14.9283 18.1017 14.3233 18.2417 13.4366 18.2834L12.8433 18.3084L12.6816 18.3134C12.2708 18.3251 11.795 18.3309 10.8575 18.3326L10.2358 18.3334H9.14497C8.53685 18.3356 7.92874 18.3292 7.3208 18.3142L7.15913 18.3092C6.96131 18.3018 6.76353 18.2931 6.5658 18.2834C5.67913 18.2417 5.07413 18.1017 4.54247 17.8959C3.98649 17.6868 3.48284 17.3589 3.06663 16.9351C2.64242 16.5187 2.31422 16.0148 2.10497 15.4584C1.89913 14.9276 1.75913 14.3226 1.71747 13.4351L1.69247 12.8417L1.6883 12.6801C1.67294 12.0724 1.66599 11.4646 1.66747 10.8567V9.14341C1.66516 8.53558 1.67127 7.92775 1.6858 7.32008L1.69163 7.15841C1.6983 6.97091 1.70663 6.78675 1.71663 6.56508C1.7583 5.67758 1.8983 5.07341 2.10413 4.54175C2.31388 3.98525 2.64265 3.48128 3.06747 3.06508C3.48343 2.64137 3.98679 2.31348 4.54247 2.10425C5.07413 1.89841 5.6783 1.75841 6.5658 1.71675C6.78747 1.70675 6.97247 1.69841 7.15913 1.69175L7.3208 1.68675C7.92846 1.67194 8.5363 1.66555 9.14413 1.66758L10.8575 1.66675ZM10.0008 5.83341C8.89573 5.83341 7.83592 6.2724 7.05452 7.0538C6.27312 7.8352 5.83413 8.89501 5.83413 10.0001C5.83413 11.1052 6.27312 12.165 7.05452 12.9464C7.83592 13.7278 8.89573 14.1667 10.0008 14.1667C11.1059 14.1667 12.1657 13.7278 12.9471 12.9464C13.7285 12.165 14.1675 11.1052 14.1675 10.0001C14.1675 8.89501 13.7285 7.8352 12.9471 7.0538C12.1657 6.2724 11.1059 5.83341 10.0008 5.83341ZM10.0008 7.50008C10.3291 7.50003 10.6542 7.56464 10.9575 7.69022C11.2609 7.81581 11.5365 7.99991 11.7687 8.23202C12.0009 8.46413 12.1851 8.7397 12.3108 9.04299C12.4364 9.34628 12.5012 9.67136 12.5012 9.99966C12.5013 10.328 12.4367 10.6531 12.3111 10.9564C12.1855 11.2597 12.0014 11.5354 11.7693 11.7676C11.5372 11.9997 11.2616 12.1839 10.9583 12.3096C10.655 12.4353 10.3299 12.5 10.0016 12.5001C9.33859 12.5001 8.70271 12.2367 8.23387 11.7678C7.76503 11.299 7.50163 10.6631 7.50163 10.0001C7.50163 9.33704 7.76503 8.70115 8.23387 8.23231C8.70271 7.76347 9.33859 7.50008 10.0016 7.50008M14.3766 4.58341C14.1004 4.58341 13.8354 4.69316 13.6401 4.88851C13.4447 5.08386 13.335 5.34881 13.335 5.62508C13.335 5.90135 13.4447 6.1663 13.6401 6.36165C13.8354 6.557 14.1004 6.66675 14.3766 6.66675C14.6529 6.66675 14.9179 6.557 15.1132 6.36165C15.3086 6.1663 15.4183 5.90135 15.4183 5.62508C15.4183 5.34881 15.3086 5.08386 15.1132 4.88851C14.9179 4.69316 14.6529 4.58341 14.3766 4.58341Z"/>
</mask>
<path d="M10.8575 1.66675C11.795 1.66925 12.2708 1.67425 12.6816 1.68591L12.8433 1.69175C13.03 1.69841 13.2141 1.70675 13.4366 1.71675C14.3233 1.75841 14.9283 1.89841 15.4591 2.10425C16.0091 2.31591 16.4725 2.60258 16.9358 3.06508C17.3597 3.48153 17.6876 3.98547 17.8966 4.54175C18.1025 5.07258 18.2425 5.67758 18.2841 6.56508C18.2941 6.78675 18.3025 6.97091 18.3091 7.15841L18.3141 7.32008C18.3266 7.73008 18.3316 8.20591 18.3333 9.14341L18.3341 9.76508V10.8567C18.3362 11.4646 18.3298 12.0724 18.315 12.6801L18.31 12.8417C18.3033 13.0292 18.295 13.2134 18.285 13.4351C18.2433 14.3226 18.1016 14.9267 17.8966 15.4584C17.6876 16.0147 17.3597 16.5186 16.9358 16.9351C16.5194 17.359 16.0154 17.6869 15.4591 17.8959C14.9283 18.1017 14.3233 18.2417 13.4366 18.2834L12.8433 18.3084L12.6816 18.3134C12.2708 18.3251 11.795 18.3309 10.8575 18.3326L10.2358 18.3334H9.14497C8.53685 18.3356 7.92874 18.3292 7.3208 18.3142L7.15913 18.3092C6.96131 18.3018 6.76353 18.2931 6.5658 18.2834C5.67913 18.2417 5.07413 18.1017 4.54247 17.8959C3.98649 17.6868 3.48284 17.3589 3.06663 16.9351C2.64242 16.5187 2.31422 16.0148 2.10497 15.4584C1.89913 14.9276 1.75913 14.3226 1.71747 13.4351L1.69247 12.8417L1.6883 12.6801C1.67294 12.0724 1.66599 11.4646 1.66747 10.8567V9.14341C1.66516 8.53558 1.67127 7.92775 1.6858 7.32008L1.69163 7.15841C1.6983 6.97091 1.70663 6.78675 1.71663 6.56508C1.7583 5.67758 1.8983 5.07341 2.10413 4.54175C2.31388 3.98525 2.64265 3.48128 3.06747 3.06508C3.48343 2.64137 3.98679 2.31348 4.54247 2.10425C5.07413 1.89841 5.6783 1.75841 6.5658 1.71675C6.78747 1.70675 6.97247 1.69841 7.15913 1.69175L7.3208 1.68675C7.92846 1.67194 8.5363 1.66555 9.14413 1.66758L10.8575 1.66675ZM10.0008 5.83341C8.89573 5.83341 7.83592 6.2724 7.05452 7.0538C6.27312 7.8352 5.83413 8.89501 5.83413 10.0001C5.83413 11.1052 6.27312 12.165 7.05452 12.9464C7.83592 13.7278 8.89573 14.1667 10.0008 14.1667C11.1059 14.1667 12.1657 13.7278 12.9471 12.9464C13.7285 12.165 14.1675 11.1052 14.1675 10.0001C14.1675 8.89501 13.7285 7.8352 12.9471 7.0538C12.1657 6.2724 11.1059 5.83341 10.0008 5.83341ZM10.0008 7.50008C10.3291 7.50003 10.6542 7.56464 10.9575 7.69022C11.2609 7.81581 11.5365 7.99991 11.7687 8.23202C12.0009 8.46413 12.1851 8.7397 12.3108 9.04299C12.4364 9.34628 12.5012 9.67136 12.5012 9.99966C12.5013 10.328 12.4367 10.6531 12.3111 10.9564C12.1855 11.2597 12.0014 11.5354 11.7693 11.7676C11.5372 11.9997 11.2616 12.1839 10.9583 12.3096C10.655 12.4353 10.3299 12.5 10.0016 12.5001C9.33859 12.5001 8.70271 12.2367 8.23387 11.7678C7.76503 11.299 7.50163 10.6631 7.50163 10.0001C7.50163 9.33704 7.76503 8.70115 8.23387 8.23231C8.70271 7.76347 9.33859 7.50008 10.0016 7.50008M14.3766 4.58341C14.1004 4.58341 13.8354 4.69316 13.6401 4.88851C13.4447 5.08386 13.335 5.34881 13.335 5.62508C13.335 5.90135 13.4447 6.1663 13.6401 6.36165C13.8354 6.557 14.1004 6.66675 14.3766 6.66675C14.6529 6.66675 14.9179 6.557 15.1132 6.36165C15.3086 6.1663 15.4183 5.90135 15.4183 5.62508C15.4183 5.34881 15.3086 5.08386 15.1132 4.88851C14.9179 4.69316 14.6529 4.58341 14.3766 4.58341Z" fill="#504848"/>
<path d="M10.8575 1.66675L10.8601 0.666747L10.857 0.666748L10.8575 1.66675ZM12.6816 1.68591L12.7177 0.686536L12.71 0.686318L12.6816 1.68591ZM12.8433 1.69175L12.8072 2.6911L12.8076 2.69111L12.8433 1.69175ZM13.4366 1.71675L13.4836 0.717848L13.4815 0.717756L13.4366 1.71675ZM15.4591 2.10425L15.0976 3.03661L15.1 3.03752L15.4591 2.10425ZM16.9358 3.06508L16.2293 3.77285L16.235 3.77844L16.9358 3.06508ZM17.8966 4.54175L16.9605 4.8935L16.9643 4.90328L17.8966 4.54175ZM18.2841 6.56508L19.2831 6.52001L19.283 6.51818L18.2841 6.56508ZM18.3091 7.15841L19.3087 7.1275L19.3085 7.12288L18.3091 7.15841ZM18.3141 7.32008L19.3137 7.28961L19.3137 7.28917L18.3141 7.32008ZM18.3333 9.14341L19.3333 9.14208L19.3333 9.14164L18.3333 9.14341ZM18.3341 9.76508H19.3341L19.3341 9.76374L18.3341 9.76508ZM18.3341 10.8567H17.3341L17.3341 10.8601L18.3341 10.8567ZM18.315 12.6801L19.3145 12.711L19.3147 12.7044L18.315 12.6801ZM18.31 12.8417L19.3093 12.8773L19.3095 12.8727L18.31 12.8417ZM18.285 13.4351L19.2839 13.482L19.284 13.4801L18.285 13.4351ZM17.8966 15.4584L16.9636 15.0986L16.9605 15.1067L17.8966 15.4584ZM16.9358 16.9351L16.235 16.2217L16.2287 16.2279L16.2224 16.2343L16.9358 16.9351ZM15.4591 17.8959L15.1074 16.9598L15.0976 16.9636L15.4591 17.8959ZM13.4366 18.2834L13.4787 19.2825L13.4836 19.2823L13.4366 18.2834ZM12.8433 18.3084L12.8742 19.308L12.8854 19.3075L12.8433 18.3084ZM12.6816 18.3134L12.71 19.313L12.7125 19.3129L12.6816 18.3134ZM10.8575 18.3326L10.8588 19.3326H10.8592L10.8575 18.3326ZM10.2358 18.3334V19.3334L10.2371 19.3334L10.2358 18.3334ZM9.14497 18.3334V17.3334L9.14144 17.3334L9.14497 18.3334ZM7.3208 18.3142L7.28989 19.3138L7.29626 19.3139L7.3208 18.3142ZM7.15913 18.3092L7.12129 19.3086L7.12823 19.3088L7.15913 18.3092ZM6.5658 18.2834L6.61495 17.2846L6.61274 17.2845L6.5658 18.2834ZM4.54247 17.8959L4.90352 16.9633L4.89452 16.9599L4.54247 17.8959ZM3.06663 16.9351L3.78011 16.2344L3.77367 16.2278L3.7671 16.2214L3.06663 16.9351ZM2.10497 15.4584L3.041 15.1063L3.03733 15.0969L2.10497 15.4584ZM1.71747 13.4351L0.718341 13.4772L0.718566 13.482L1.71747 13.4351ZM1.69247 12.8417L0.692798 12.8675L0.693009 12.8757L0.693353 12.8838L1.69247 12.8417ZM1.6883 12.6801L0.688619 12.7054L0.688632 12.7058L1.6883 12.6801ZM1.66747 10.8567L2.66747 10.8592V10.8567H1.66747ZM1.66747 9.14341H2.66747L2.66746 9.13962L1.66747 9.14341ZM1.6858 7.32008L0.686376 7.28402L0.686085 7.29618L1.6858 7.32008ZM1.69163 7.15841L2.69098 7.19447L2.691 7.19395L1.69163 7.15841ZM1.71663 6.56508L0.717731 6.51818L0.717649 6.52001L1.71663 6.56508ZM2.10413 4.54175L3.03672 4.9028L3.03988 4.89443L2.10413 4.54175ZM3.06747 3.06508L3.76729 3.7794L3.77425 3.77258L3.78107 3.76563L3.06747 3.06508ZM4.54247 2.10425L4.89486 3.04015L4.9035 3.0368L4.54247 2.10425ZM6.5658 1.71675L6.52073 0.717762L6.5189 0.717848L6.5658 1.71675ZM7.15913 1.69175L7.12822 0.692215L7.12344 0.692385L7.15913 1.69175ZM7.3208 1.68675L7.29644 0.687023L7.28989 0.687226L7.3208 1.68675ZM9.14413 1.66758L9.1408 2.66758L9.14462 2.66758L9.14413 1.66758ZM10.0008 5.83341V4.83341V5.83341ZM5.83413 10.0001H4.83413H5.83413ZM10.0008 14.1667V13.1667V14.1667ZM14.1675 10.0001H13.1675H14.1675ZM10.0016 12.5001V13.5001H10.0018L10.0016 12.5001ZM10.8575 1.66675L10.8548 2.66674C11.7917 2.66924 12.2564 2.67424 12.6532 2.68551L12.6816 1.68591L12.71 0.686318C12.2852 0.674255 11.7982 0.669253 10.8601 0.666752L10.8575 1.66675ZM12.6816 1.68591L12.6456 2.68526L12.8072 2.6911L12.8433 1.69175L12.8794 0.692398L12.7177 0.686565L12.6816 1.68591ZM12.8433 1.69175L12.8076 2.69111C12.9888 2.69758 13.168 2.70568 13.3917 2.71574L13.4366 1.71675L13.4815 0.717756C13.2603 0.707812 13.0712 0.699249 12.879 0.692385L12.8433 1.69175ZM13.4366 1.71675L13.3897 2.71565C14.1829 2.75292 14.6799 2.87465 15.0976 3.03661L15.4591 2.10425L15.8207 1.17189C15.1767 0.922177 14.4637 0.763907 13.4836 0.71785L13.4366 1.71675ZM15.4591 2.10425L15.1 3.03752C15.5255 3.20128 15.869 3.41317 16.2293 3.77282L16.9358 3.06508L17.6423 2.35734C17.0759 1.79199 16.4928 1.43055 15.8183 1.17098L15.4591 2.10425ZM16.9358 3.06508L16.235 3.77844C16.5551 4.0929 16.8027 4.47343 16.9605 4.89348L17.8966 4.54175L18.8327 4.19002C18.5725 3.49752 18.1643 2.87015 17.6366 2.35172L16.9358 3.06508ZM17.8966 4.54175L16.9643 4.90328C17.1262 5.32089 17.248 5.81786 17.2852 6.61198L18.2841 6.56508L19.283 6.51818C19.237 5.53731 19.0787 4.82427 18.829 4.18022L17.8966 4.54175ZM18.2841 6.56508L17.2852 6.61015C17.2952 6.83291 17.3033 7.0121 17.3098 7.19395L18.3091 7.15841L19.3085 7.12288C19.3016 6.92972 19.2931 6.74059 19.2831 6.52001L18.2841 6.56508ZM18.3091 7.15841L17.3096 7.18933L17.3146 7.351L18.3141 7.32008L19.3137 7.28917L19.3087 7.1275L18.3091 7.15841ZM18.3141 7.32008L17.3146 7.35056C17.3266 7.74497 17.3316 8.2083 17.3333 9.14519L18.3333 9.14341L19.3333 9.14164C19.3316 8.20353 19.3266 7.71519 19.3137 7.28961L18.3141 7.32008ZM18.3333 9.14341L17.3333 9.14475L17.3341 9.76642L18.3341 9.76508L19.3341 9.76374L19.3333 9.14208L18.3333 9.14341ZM18.3341 9.76508H17.3341V10.8567H18.3341H19.3341V9.76508H18.3341ZM18.3341 10.8567L17.3341 10.8601C17.3361 11.4587 17.3298 12.0573 17.3153 12.6557L18.315 12.6801L19.3147 12.7044C19.3297 12.0875 19.3362 11.4705 19.3341 10.8534L18.3341 10.8567ZM18.315 12.6801L17.3154 12.6492L17.3104 12.8108L18.31 12.8417L19.3095 12.8727L19.3145 12.711L18.315 12.6801ZM18.31 12.8417L17.3106 12.8062C17.3041 12.9881 17.296 13.1672 17.286 13.39L18.285 13.4351L19.284 13.4801C19.2939 13.2596 19.3025 13.0704 19.3093 12.8773L18.31 12.8417ZM18.285 13.4351L17.2861 13.3882C17.2489 14.1802 17.126 14.6774 16.9636 15.0987L17.8966 15.4584L18.8297 15.8182C19.0773 15.1761 19.2377 14.465 19.2839 13.482L18.285 13.4351ZM17.8966 15.4584L16.9605 15.1067C16.8027 15.5267 16.5551 15.9073 16.235 16.2217L16.9358 16.9351L17.6366 17.6484C18.1643 17.13 18.5725 16.5026 18.8327 15.8101L17.8966 15.4584ZM16.9358 16.9351L16.2224 16.2343C15.908 16.5544 15.5274 16.802 15.1074 16.9598L15.4591 17.8959L15.8109 18.832C16.5034 18.5718 17.1307 18.1636 17.6492 17.6359L16.9358 16.9351ZM15.4591 17.8959L15.0976 16.9636C14.6799 17.1255 14.1829 17.2472 13.3897 17.2845L13.4366 18.2834L13.4836 19.2823C14.4637 19.2363 15.1767 19.078 15.8207 18.8283L15.4591 17.8959ZM13.4366 18.2834L13.3945 17.2843L12.8012 17.3093L12.8433 18.3084L12.8854 19.3075L13.4787 19.2825L13.4366 18.2834ZM12.8433 18.3084L12.8124 17.3089L12.6507 17.3139L12.6816 18.3134L12.7125 19.3129L12.8742 19.3079L12.8433 18.3084ZM12.6816 18.3134L12.6532 17.3138C12.256 17.3251 11.7908 17.3309 10.8557 17.3326L10.8575 18.3326L10.8592 19.3326C11.7991 19.3309 12.2856 19.3251 12.71 19.313L12.6816 18.3134ZM10.8575 18.3326L10.8561 17.3326L10.2345 17.3334L10.2358 18.3334L10.2371 19.3334L10.8588 19.3326L10.8575 18.3326ZM10.2358 18.3334V17.3334H9.14497V18.3334V19.3334H10.2358V18.3334ZM9.14497 18.3334L9.14144 17.3334C8.54268 17.3355 7.94392 17.3292 7.34534 17.3145L7.3208 18.3142L7.29626 19.3139C7.91355 19.3291 8.53102 19.3356 9.14849 19.3334L9.14497 18.3334ZM7.3208 18.3142L7.35171 17.3147L7.19004 17.3097L7.15913 18.3092L7.12823 19.3088L7.28989 19.3138L7.3208 18.3142ZM7.15913 18.3092L7.19698 17.31C7.00292 17.3026 6.80891 17.2942 6.61495 17.2846L6.5658 18.2834L6.51665 19.2822C6.71815 19.2921 6.91969 19.3009 7.12129 19.3085L7.15913 18.3092ZM6.5658 18.2834L6.61274 17.2845C5.81961 17.2472 5.3224 17.1255 4.9035 16.9634L4.54247 17.8959L4.18143 18.8285C4.82587 19.078 5.53866 19.2362 6.51886 19.2823L6.5658 18.2834ZM4.54247 17.8959L4.89452 16.9599C4.4747 16.802 4.09439 16.5544 3.78011 16.2344L3.06663 16.9351L2.35315 17.6358C2.87128 18.1634 3.49828 18.5716 4.19041 18.8319L4.54247 17.8959ZM3.06663 16.9351L3.7671 16.2214C3.44678 15.907 3.19896 15.5265 3.04095 15.1064L2.10497 15.4584L1.16898 15.8105C1.42949 16.5031 1.83806 17.1304 2.36616 17.6488L3.06663 16.9351ZM2.10497 15.4584L3.03733 15.0969C2.87539 14.6793 2.75365 14.1823 2.71637 13.3882L1.71747 13.4351L0.718566 13.482C0.764617 14.4629 0.922872 15.1759 1.17261 15.8199L2.10497 15.4584ZM1.71747 13.4351L2.71658 13.393L2.69158 12.7997L1.69247 12.8417L0.693353 12.8838L0.718353 13.4772L1.71747 13.4351ZM1.69247 12.8417L2.69213 12.816L2.68797 12.6543L1.6883 12.6801L0.688632 12.7058L0.692798 12.8675L1.69247 12.8417ZM1.6883 12.6801L2.68798 12.6548C2.67285 12.0564 2.66601 11.4578 2.66746 10.8592L1.66747 10.8567L0.667469 10.8543C0.665973 11.4714 0.673024 12.0885 0.688619 12.7054L1.6883 12.6801ZM1.66747 10.8567H2.66747V9.14341H1.66747H0.667466V10.8567H1.66747ZM1.66747 9.14341L2.66746 9.13962C2.66519 8.54102 2.67121 7.94242 2.68551 7.34398L1.6858 7.32008L0.686085 7.29618C0.671336 7.91307 0.665132 8.53014 0.667473 9.14721L1.66747 9.14341ZM1.6858 7.32008L2.68515 7.35614L2.69098 7.19447L1.69163 7.15841L0.692283 7.12236L0.68645 7.28402L1.6858 7.32008ZM1.69163 7.15841L2.691 7.19395C2.69747 7.01211 2.70557 6.83291 2.71562 6.61015L1.71663 6.56508L0.717649 6.52001C0.707698 6.74058 0.699132 6.92972 0.692264 7.12288L1.69163 7.15841ZM1.71663 6.56508L2.71553 6.61198C2.7528 5.81815 2.87448 5.32176 3.03669 4.90278L2.10413 4.54175L1.17158 4.18071C0.922121 4.82507 0.763797 5.53702 0.717733 6.51818L1.71663 6.56508ZM2.10413 4.54175L3.03988 4.89443C3.19826 4.47421 3.44651 4.09367 3.76729 3.7794L3.06747 3.06508L2.36764 2.35077C1.83879 2.86889 1.4295 3.49628 1.16839 4.18907L2.10413 4.54175ZM3.06747 3.06508L3.78107 3.76563C4.09516 3.44569 4.47525 3.19809 4.89484 3.04011L4.54247 2.10425L4.19009 1.16839C3.49833 1.42886 2.87169 1.83705 2.35387 2.36453L3.06747 3.06508ZM4.54247 2.10425L4.9035 3.0368C5.32248 2.87459 5.81886 2.75292 6.6127 2.71565L6.5658 1.71675L6.5189 0.717848C5.53773 0.763912 4.82579 0.922236 4.18143 1.1717L4.54247 2.10425ZM6.5658 1.71675L6.61087 2.71573C6.83344 2.70569 7.01367 2.69758 7.19483 2.69111L7.15913 1.69175L7.12344 0.692385C6.93126 0.699249 6.74149 0.707805 6.52073 0.717764L6.5658 1.71675ZM7.15913 1.69175L7.19005 2.69127L7.35171 2.68627L7.3208 1.68675L7.28989 0.687226L7.12822 0.692226L7.15913 1.69175ZM7.3208 1.68675L7.34516 2.68645C7.94359 2.67187 8.54219 2.66558 9.1408 2.66758L9.14413 1.66758L9.14747 0.667587C8.5304 0.665527 7.91333 0.672014 7.29644 0.687045L7.3208 1.68675ZM9.14413 1.66758L9.14462 2.66758L10.858 2.66675L10.8575 1.66675L10.857 0.666748L9.14365 0.667581L9.14413 1.66758ZM10.0008 5.83341V4.83341C8.63051 4.83341 7.31635 5.37776 6.34742 6.3467L7.05452 7.0538L7.76163 7.76091C8.35549 7.16704 9.16095 6.83341 10.0008 6.83341V5.83341ZM7.05452 7.0538L6.34742 6.3467C5.37848 7.31563 4.83413 8.6298 4.83413 10.0001H5.83413H6.83413C6.83413 9.16023 7.16776 8.35477 7.76163 7.76091L7.05452 7.0538ZM5.83413 10.0001H4.83413C4.83413 11.3704 5.37848 12.6845 6.34742 13.6535L7.05452 12.9464L7.76163 12.2393C7.16776 11.6454 6.83413 10.8399 6.83413 10.0001H5.83413ZM7.05452 12.9464L6.34742 13.6535C7.31635 14.6224 8.63051 15.1667 10.0008 15.1667V14.1667V13.1667C9.16095 13.1667 8.35549 12.8331 7.76163 12.2393L7.05452 12.9464ZM10.0008 14.1667V15.1667C11.3711 15.1667 12.6852 14.6224 13.6542 13.6535L12.9471 12.9464L12.24 12.2393C11.6461 12.8331 10.8407 13.1667 10.0008 13.1667V14.1667ZM12.9471 12.9464L13.6542 13.6535C14.6231 12.6845 15.1675 11.3704 15.1675 10.0001H14.1675H13.1675C13.1675 10.8399 12.8338 11.6454 12.24 12.2393L12.9471 12.9464ZM14.1675 10.0001H15.1675C15.1675 8.6298 14.6231 7.31563 13.6542 6.3467L12.9471 7.0538L12.24 7.76091C12.8338 8.35477 13.1675 9.16023 13.1675 10.0001H14.1675ZM12.9471 7.0538L13.6542 6.3467C12.6852 5.37776 11.3711 4.83341 10.0008 4.83341V5.83341V6.83341C10.8407 6.83341 11.6461 7.16704 12.24 7.76091L12.9471 7.0538ZM10.0008 7.50008L10.001 8.50008C10.1979 8.50005 10.393 8.53881 10.575 8.61417L10.9575 7.69022L11.3401 6.76628C10.9154 6.59046 10.4603 6.5 10.0006 6.50008L10.0008 7.50008ZM10.9575 7.69022L10.575 8.61417C10.757 8.68952 10.9224 8.79998 11.0617 8.93924L11.7687 8.23202L12.4757 7.5248C12.1506 7.19984 11.7647 6.9421 11.3401 6.76628L10.9575 7.69022ZM11.7687 8.23202L11.0617 8.93924C11.201 9.07851 11.3115 9.24385 11.3869 9.42583L12.3108 9.04299L13.2346 8.66015C13.0586 8.23554 12.8007 7.84975 12.4757 7.5248L11.7687 8.23202ZM12.3108 9.04299L11.3869 9.42583C11.4624 9.6078 11.5012 9.80285 11.5012 9.99983L12.5012 9.99966L13.5012 9.9995C13.5011 9.53987 13.4105 9.08476 13.2346 8.66015L12.3108 9.04299ZM12.5012 9.99966L11.5012 9.99983C11.5012 10.1968 11.4625 10.3919 11.3871 10.5739L12.3111 10.9564L13.235 11.3389C13.4108 10.9143 13.5013 10.4591 13.5012 9.9995L12.5012 9.99966ZM12.3111 10.9564L11.3871 10.5739C11.3118 10.7559 11.2013 10.9213 11.0621 11.0606L11.7693 11.7676L12.4765 12.4745C12.8015 12.1495 13.0592 11.7636 13.235 11.3389L12.3111 10.9564ZM11.7693 11.7676L11.0621 11.0606C10.9228 11.1999 10.7574 11.3104 10.5755 11.3858L10.9583 12.3096L11.3411 13.2334C11.7658 13.0575 12.1516 12.7996 12.4765 12.4745L11.7693 11.7676ZM10.9583 12.3096L10.5755 11.3858C10.3935 11.4612 10.1985 11.5 10.0015 11.5001L10.0016 12.5001L10.0018 13.5001C10.4614 13.5 10.9165 13.4094 11.3411 13.2334L10.9583 12.3096ZM10.0016 12.5001V11.5001C9.60381 11.5001 9.22228 11.342 8.94097 11.0607L8.23387 11.7678L7.52676 12.475C8.18314 13.1313 9.07338 13.5001 10.0016 13.5001V12.5001ZM8.23387 11.7678L8.94097 11.0607C8.65967 10.7794 8.50163 10.3979 8.50163 10.0001H7.50163H6.50163C6.50163 10.9283 6.87038 11.8186 7.52676 12.475L8.23387 11.7678ZM7.50163 10.0001H8.50163C8.50163 9.60226 8.65967 9.22073 8.94097 8.93942L8.23387 8.23231L7.52676 7.52521C6.87038 8.18158 6.50163 9.07182 6.50163 10.0001H7.50163ZM8.23387 8.23231L8.94097 8.93942C9.22228 8.65812 9.60381 8.50008 10.0016 8.50008V7.50008V6.50008C9.07338 6.50008 8.18314 6.86883 7.52676 7.52521L8.23387 8.23231ZM14.3766 4.58341V3.58341C13.8351 3.58341 13.3158 3.79852 12.933 4.1814L13.6401 4.88851L14.3472 5.59562C14.355 5.5878 14.3656 5.58341 14.3766 5.58341V4.58341ZM13.6401 4.88851L12.933 4.1814C12.5501 4.56429 12.335 5.0836 12.335 5.62508H13.335H14.335C14.335 5.61403 14.3394 5.60343 14.3472 5.59562L13.6401 4.88851ZM13.335 5.62508H12.335C12.335 6.16657 12.5501 6.68587 12.933 7.06876L13.6401 6.36165L14.3472 5.65454C14.3394 5.64673 14.335 5.63613 14.335 5.62508H13.335ZM13.6401 6.36165L12.933 7.06876C13.3158 7.45164 13.8351 7.66675 14.3766 7.66675V6.66675V5.66675C14.3656 5.66675 14.355 5.66236 14.3472 5.65454L13.6401 6.36165ZM14.3766 6.66675V7.66675C14.9181 7.66675 15.4374 7.45164 15.8203 7.06876L15.1132 6.36165L14.4061 5.65454C14.3983 5.66236 14.3877 5.66675 14.3766 5.66675V6.66675ZM15.1132 6.36165L15.8203 7.06876C16.2032 6.68587 16.4183 6.16656 16.4183 5.62508H15.4183H14.4183C14.4183 5.63613 14.4139 5.64673 14.4061 5.65454L15.1132 6.36165ZM15.4183 5.62508H16.4183C16.4183 5.0836 16.2032 4.56429 15.8203 4.1814L15.1132 4.88851L14.4061 5.59562C14.4139 5.60343 14.4183 5.61403 14.4183 5.62508H15.4183ZM15.1132 4.88851L15.8203 4.1814C15.4374 3.79852 14.9181 3.58341 14.3766 3.58341V4.58341V5.58341C14.3877 5.58341 14.3983 5.58781 14.4061 5.59562L15.1132 4.88851Z" fill="#504848" mask="url(#path-1-inside-1_2508_14167)"/>
</svg>
