<svg width="20" height="21" viewBox="0 0 20 21" fill="none" xmlns="http://www.w3.org/2000/svg">
<path d="M6.6873 7.91662C7.28584 9.16324 8.10176 10.3316 9.13507 11.3649C10.1684 12.3982 11.3368 13.2142 12.5834 13.8127C12.6906 13.8642 12.7442 13.8899 12.8121 13.9097C13.0532 13.98 13.3492 13.9295 13.5534 13.7833C13.6109 13.7422 13.66 13.693 13.7583 13.5947C14.059 13.294 14.2093 13.1437 14.3604 13.0454C14.9305 12.6748 15.6654 12.6748 16.2355 13.0454C16.3866 13.1437 16.537 13.294 16.8376 13.5947L17.0052 13.7623C17.4622 14.2193 17.6907 14.4478 17.8148 14.6932C18.0617 15.1813 18.0617 15.7577 17.8148 16.2458C17.6907 16.4912 17.4622 16.7197 17.0052 17.1767L16.8696 17.3123C16.4142 17.7678 16.1864 17.9955 15.8768 18.1694C15.5333 18.3624 14.9997 18.5012 14.6056 18.5C14.2505 18.4989 14.0078 18.43 13.5224 18.2923C10.9138 17.5519 8.45226 16.1549 6.39869 14.1013C4.34511 12.0477 2.94812 9.58622 2.20772 6.97761C2.06995 6.49221 2.00106 6.2495 2.00001 5.89439C1.99883 5.50033 2.1376 4.96673 2.33059 4.62317C2.50452 4.31356 2.73225 4.08583 3.1877 3.63037L3.32326 3.49481C3.78028 3.03779 4.00879 2.80928 4.25421 2.68515C4.74229 2.43828 5.3187 2.43828 5.80678 2.68515C6.05219 2.80928 6.2807 3.03779 6.73772 3.49481L6.9053 3.66239C7.20595 3.96304 7.35628 4.11337 7.45456 4.26453C7.8252 4.83459 7.8252 5.5695 7.45456 6.13956C7.35628 6.29072 7.20595 6.44105 6.90531 6.74169C6.807 6.84 6.75785 6.88915 6.71671 6.94661C6.5705 7.15079 6.52002 7.44684 6.5903 7.68793C6.61008 7.75577 6.63582 7.80939 6.6873 7.91662Z" fill="#EC7D3F"/>
</svg>
