<svg width="42" height="42" viewBox="0 0 42 42" fill="none" xmlns="http://www.w3.org/2000/svg">
<rect width="42" height="42" rx="21" fill="#F4F4F1"/>
<path d="M21 23.25C22.6569 23.25 24 21.9069 24 20.25C24 18.5931 22.6569 17.25 21 17.25C19.3431 17.25 18 18.5931 18 20.25C18 21.9069 19.3431 23.25 21 23.25ZM21 23.25C23.2527 23.25 25.1741 24.6688 25.9191 26.6616M21 23.25C18.7473 23.25 16.8259 24.6688 16.0809 26.6616M25.9191 26.6616C27.5004 25.2866 28.5 23.26 28.5 21C28.5 16.8579 25.1421 13.5 21 13.5C16.8579 13.5 13.5 16.8579 13.5 21C13.5 23.26 14.4996 25.2866 16.0809 26.6616M25.9191 26.6616C24.6023 27.8067 22.8821 28.5 21 28.5C19.1179 28.5 17.3977 27.8067 16.0809 26.6616" stroke="#181817" stroke-width="1.5"/>
</svg>
