<svg width="20" height="20" viewBox="0 0 20 20" fill="none" xmlns="http://www.w3.org/2000/svg">
<path d="M17.4355 3.51074C17.4408 3.51289 17.4417 3.51389 17.4424 3.51465C17.4449 3.51733 17.4799 3.55783 17.4941 3.69434C17.5082 3.82977 17.4978 4.0242 17.4434 4.2832L17.4424 4.28711L15.0947 15.8994L15.0938 15.9053C15.0095 16.3491 14.8876 16.4693 14.8516 16.4902C14.8457 16.4936 14.8242 16.5069 14.7578 16.4961C14.6841 16.4841 14.5675 16.4425 14.4004 16.3408L10.8535 13.5645L10.5068 13.2939L10.1934 13.6035L8.12012 15.6533C8.10812 15.6642 8.09798 15.668 8.0918 15.6709C8.09021 15.6694 8.08888 15.6671 8.08691 15.665L8.29688 12.9951L15.709 5.98145C15.8293 5.86926 15.9983 5.68247 16.0234 5.43262C16.0388 5.2788 15.9975 5.11063 15.877 4.97656C15.7678 4.85517 15.6328 4.80516 15.5361 4.78418C15.3491 4.74363 15.1579 4.7792 15.0088 4.82812C14.8877 4.8679 14.7629 4.92691 14.6406 5.00391L14.5459 5.06836L5.95312 10.6162L2.58398 9.49707C2.56163 9.48615 2.54504 9.47465 2.53125 9.46582C2.53292 9.46402 2.53431 9.46186 2.53613 9.45996C2.57459 9.42005 2.63826 9.37134 2.73145 9.32715L16.8877 3.62305L16.8945 3.62012C17.1234 3.5241 17.276 3.49828 17.3652 3.5C17.4069 3.50082 17.4283 3.50783 17.4355 3.51074Z" fill="#504848" stroke="#504848"/>
</svg>
