<svg width="20" height="20" viewBox="0 0 20 20" fill="none" xmlns="http://www.w3.org/2000/svg">
<path fill-rule="evenodd" clip-rule="evenodd" d="M3.376 13.8723L2 18L6.48 16.8212C7.57269 17.3967 8.81683 17.7241 10.1379 17.7241C14.48 17.7241 18 14.2041 18 9.86207C18 5.52 14.48 2 10.1379 2C5.79586 2 2.27586 5.52 2.27586 9.86207C2.27586 11.3274 2.67779 12.6979 3.376 13.8723ZM13.4523 11.008C13.4523 11.008 14.7911 11.7926 15.1541 12.4786C15.3086 12.7702 15.2548 13.1286 15.0214 13.3625L14.5364 13.8475C12.998 15.3859 11.2611 14.6284 9.72264 13.0899L6.91051 10.2778C5.37202 8.73932 4.61451 7.00249 6.15299 5.46401L6.63795 4.97904C6.87133 4.74566 7.22968 4.6916 7.52154 4.84608C8.20761 5.20911 8.99216 6.54787 8.99216 6.54787C9.16485 6.85077 9.18416 7.21601 8.8763 7.38897C8.8763 7.38897 8.35464 7.82401 8.27961 7.93463C7.93726 8.44001 7.95051 8.90815 8.42306 9.3807L10.6195 11.5771C11.092 12.0497 11.5602 12.0629 12.0655 11.7206C12.1762 11.6455 12.6112 11.1239 12.6112 11.1239C12.7839 10.816 13.1494 10.8353 13.4523 11.008Z" fill="#504848"/>
</svg>
